<?xml version="1.0" encoding="UTF-8"?>
<!DOCTYPE svg PUBLIC "-//W3C//DTD SVG 1.1//EN" "http://www.w3.org/Graphics/SVG/1.1/DTD/svg11.dtd">
<!-- Creator: CorelDRAW 2021 (64-Bit) -->
<svg xmlns="http://www.w3.org/2000/svg" xml:space="preserve" width="100mm" height="50mm" version="1.1" style="shape-rendering:geometricPrecision; text-rendering:geometricPrecision; image-rendering:optimizeQuality; fill-rule:evenodd; clip-rule:evenodd"
viewBox="0 0 99924.1 49962"
 xmlns:xlink="http://www.w3.org/1999/xlink"
 xmlns:xodm="http://www.corel.com/coreldraw/odm/2003">
 <defs>
  <style type="text/css">
   <![CDATA[
    .fil0 {fill:none}
    .fil4 {fill:#0D6E41}
    .fil5 {fill:#124A33}
    .fil1 {fill:#4D872B}
    .fil2 {fill:#7CB940}
    .fil3 {fill:#FF9933}
    .fil6 {fill:#FE9833;fill-rule:nonzero}
   ]]>
  </style>
 </defs>
 <g id="Layer_x0020_1">
  <metadata id="CorelCorpID_0Corel-Layer"/>
  <rect class="fil0" width="99924.1" height="49962"/>
  <g id="_2519615940880">
   <path class="fil1" d="M6544.3 24786c656.1,-431 2277.1,-439.2 3215.5,-361.3l3462 279.3c-1029.6,471.5 -5892.8,108.6 -6389.9,1703.2 -839.4,1771.4 -384.2,4381.1 2917.2,3944.1 129.4,-17 644.4,149.3 600,602.8 -637.5,3237.3 2800.4,5027.2 4772.2,2053.2 757,-1141.7 570.8,-2992.8 745.4,-5905.8 299.3,4268.2 598.9,7341.2 -1864.7,8450.5 -1353.8,778.3 -3809.6,192.4 -4607.6,-1157.1 -487.9,-824.8 -565.6,-1823.8 -704.2,-2289.7 -270,-116.3 -1152.1,-133.4 -1978.7,-653.6 -2120.8,-1474 -2670.2,-5020.6 -167.2,-6665.6z"/>
   <path class="fil2" d="M6569.3 24817.4c666.3,401.8 2299.9,386.5 3244.8,298.9l3403 -410.4c-1043.6,-435.1 -5857.6,75.3 -6378.1,-1437.9 -867.6,-1677.3 -440.8,-4171.9 2891.6,-3802.3 130.6,14.6 647.7,-151.6 597.3,-583.7 -682.1,-3077.4 2760.8,-4832.5 4784,-2025.5 777,1077.9 612,2845.4 823.5,5620.7 249.5,-4073.8 514.1,-7008.3 -1982.4,-8031.2 -1373.8,-722.4 -3841.3,-128.9 -4629.4,1168.9 -481.4,793.8 -547.8,1747.4 -681.6,2193.2 -270.8,114.8 -1159.5,143.6 -1986,651.6 -2119.3,1435.5 -2629.5,4824.9 -86.8,6357.6z"/>
   <path class="fil3" d="M25373.5 24845.2c-655.9,424.4 -2276.9,432.7 -3215.4,356.1l-3461.8 -274.4c1029.7,-464.3 5892.7,-107.7 6390,-1676.4 839.4,-1744 384.6,-4311.7 -2916.8,-3881.6 -129.5,17.2 -644.5,-146.5 -599.9,-593.2 638,-3185.4 -2799.9,-4945.7 -4771.9,-2019.5 -757.3,1123.9 -687.3,2854.2 -862.3,5721.1 -298.7,-4200.1 -482,-7133.7 1981.8,-8225.3 1353.8,-765.8 3809.4,-189.1 4607.4,1138.2 487.8,811.7 565.5,1794.5 704.1,2252.9 270,114.4 1152,131.3 1978.3,643.1 2120.7,1450 2669.7,4940.1 166.5,6559z"/>
   <path class="fil4" d="M25138.8 24852.5c-661.4,-421.7 -2282.3,-406.6 -3219.5,-315.1l-3458.3 329.5c1035.6,456.8 5893.6,23.2 6410.5,1610.3 861.3,1759.6 438.9,4375.2 -2867.5,3986.2 -129.7,-15 -642.9,158.6 -592.4,611.9 677.6,3227.7 -2737.6,5066.7 -4746.4,2121.8 -771.1,-1130.5 -588.9,-3172 -799.5,-6082.8 -246,4272.7 -526.7,7538.1 1950.3,8611.4 1363.3,758.3 3811.8,136.5 4592.7,-1224.1 477.6,-832 542.9,-1831.8 675.7,-2299.5 268.7,-120.5 1150.3,-150.2 1970.4,-682.7 2102.1,-1504.5 2607.3,-5058.6 83.9,-6667z"/>
   <path class="fil4" d="M31560.2 21034.4l1903.8 -13.6 42.1 6741.4 3053 -22.1 10.2 1669 -4956.6 36.3 -52.4 -8411zm7780.8 6150.9c12,184 74.5,349.8 183.8,497.2 105.8,147.6 254.6,258.3 442.9,336.3 184.8,81.7 409.1,119.8 672.9,118.2 245.5,-1.9 465.8,-28.8 664.1,-80.8 198.5,-48.4 368,-114.6 515.5,-195.3 147.6,-77 259.2,-157.2 341.8,-237.5l758.9 1190.5c-111.3,116.5 -258.8,229.5 -449.7,335.7 -190.8,106.2 -443.1,198.2 -756.9,269 -314,71 -711.2,110.2 -1191.7,113.8 -581.5,4.1 -1099.1,-100.6 -1551.8,-314.1 -453.2,-213.5 -805.4,-528.8 -1061,-949.9 -258.9,-416.9 -388.8,-932.7 -392.5,-1543.3 -3.1,-509.2 106,-969.4 323.8,-1378.9 217.8,-409.8 537.3,-733.7 962.1,-979 421.2,-241.4 933.5,-364.7 1529.6,-368.9 571,-4.1 1066.4,97.2 1487.1,300.1 416.6,202.9 739.8,511.2 970.2,917.9 226.7,410.2 341.7,922.5 345.5,1532.7 0.2,29.2 0.7,94.2 1.2,199.1 0.6,104.7 -2.3,176.7 -9.5,209.3l-3786.2 27.6zm1977.1 -1029.5c-4.4,-133.7 -41.6,-270.8 -110.9,-407.5 -69.4,-133.2 -175,-244.5 -309.2,-330 -134.2,-86 -311.5,-128.1 -524.6,-126.3 -216.9,1.5 -397.2,46 -541.2,130.3 -144,84 -251.7,193.3 -326.7,323.9 -75.1,134.4 -121.1,275.4 -130.9,423.6l1943.4 -13.9zm6902.6 3168.9l-5.3 -849.2c-39.2,87.1 -132.4,210.7 -286.8,374.5 -154.2,163.8 -359.2,309.8 -615,437.9 -255.8,132.2 -551.7,199 -891.1,201.7 -509.3,3.6 -954.7,-116 -1339.1,-362.6 -384.5,-246.4 -682.9,-576.7 -898.7,-994.2 -215.8,-417.2 -323.4,-879.4 -326.6,-1388.4 -3.2,-509.4 98.7,-976.3 309.4,-1396.9 210.4,-417.1 504.8,-755.2 885.9,-1007.2 381.5,-252.1 825.1,-381.6 1334.5,-385.4 328.9,-2.5 614.5,46.1 864.4,149.2 246.4,102.9 446,224.3 601.9,364.1 152.8,139.6 258.3,272.4 316.9,391.4l-4.9 -766.1 1925.7 -13.6 32.7 5231.1 -1904 13.8zm-2465.9 -2594.1c1.5,238.4 57.2,451.1 170.4,638.3 113.2,190.5 262.3,337.6 447.1,440.9 185,103.5 391.1,156.2 615.1,154.5 234.8,-1.6 440.5,-57.3 616.9,-163.3 176.3,-106 319.9,-255.1 423.5,-447.6 103.6,-188.6 152.8,-402.1 151.3,-640.6 -1.3,-238.1 -53.3,-451.1 -159.4,-642 -105.7,-187.1 -251.2,-334 -429.1,-441.2 -177.6,-107.1 -383.9,-159.9 -618.8,-158.2 -224,1.7 -429.4,57.5 -613,167.1 -183.6,110 -330.7,259.1 -441.8,447.7 -110.7,192.5 -163.5,405.8 -162.2,644.4zm5164.6 -2657.2l867 -6.3 -8.4 -1383.5c-3.3,-509.5 102.3,-936.6 317.2,-1277.7 214.3,-340.9 494.6,-599.5 836.9,-775.4 342.1,-176.1 699.4,-265.4 1067.8,-268.1 458.8,-3.4 809.5,55.5 1052.6,176.8 239.1,121 391.3,210 453.1,271l-727.8 1425.6c-22.2,-32.6 -76.6,-82.7 -160,-147.1 -87.1,-61 -199.4,-92.6 -340.4,-91.5 -90.3,0.6 -176.9,23 -266.9,70.6 -89.9,47.3 -161.7,131.1 -218.8,250.7 -57,119.6 -84.7,293.4 -83.2,524.7l7.5 1210.4 1293.4 -9.7 9.8 1593.5 -1293.3 9.1 22.5 3638.3 -1929 14 -22.8 -3638 -867 6.2 -9.9 -1593.5zm6460.4 2981c12.1,184.3 74.5,349.9 183.8,497.2 105.7,147.5 254.5,258.1 442.9,336.3 184.8,81.7 409.1,120 672.8,118.1 245.7,-1.8 465.8,-28.8 664.2,-80.5 198.5,-48.6 368,-114.8 515.6,-195.6 147.5,-77 258.9,-157.2 341.6,-237.1l759 1190.3c-111.4,116.2 -258.8,229.4 -449.6,335.5 -190.9,106.4 -443.3,198.5 -757,269.5 -313.8,70.8 -711.3,109.7 -1191.5,113.3 -581.9,4.2 -1099.1,-100.4 -1552,-314 -452.9,-213.5 -805.4,-528.7 -1061,-949.7 -259.1,-417.3 -388.6,-932.9 -392.5,-1543.7 -3.2,-509.3 105.8,-969 323.7,-1378.7 218.1,-410 537.6,-733.8 962.5,-979 421.1,-241.5 933.4,-364.7 1529.5,-368.7 570.7,-4.4 1066.5,97 1486.7,299.8 417,202.8 740.2,511.4 970.6,917.9 226.5,410.3 341.5,922.5 345.4,1533 0.3,28.9 0.5,93.9 1.3,198.6 0.7,105 -2.6,177.2 -9.7,209.8l-3786.2 27.4zm1977.3 -1029.7c-4.4,-133.5 -41.4,-270.6 -111,-407.4 -69.4,-133.4 -174.9,-244.5 -309.1,-329.9 -134.2,-85.9 -311.7,-127.9 -524.9,-126.4 -216.6,1.6 -397,46.1 -541.1,130.2 -143.9,84.3 -251.8,193.5 -326.8,324 -75,134.4 -121.1,275.5 -131,423.6l1943.8 -14zm5086 3334.1c-505.8,3.9 -947.2,-116 -1320.9,-362.6 -373.6,-246.3 -664.8,-577 -873.4,-994.3 -208.3,-417.4 -316.3,-879.4 -319.4,-1388.4 -3.3,-509.5 98.6,-976.6 302.1,-1397.1 203.2,-416.9 490.2,-755 860.8,-1007.1 370.5,-251.6 810.6,-381.5 1316.2,-385.1 336,-2.6 632.6,45.8 893.5,148.8 260.7,103.1 470.9,224.5 634.5,364.1 163.4,139.6 261.8,272.5 295,391.5l-26.9 -4302.7 1936.6 -14.1 54.6 8768.3 -1918.4 14.1 -5.2 -849.2c-78.6,159.5 -207.6,315.8 -390.9,472.5 -183.5,156.4 -395.6,284.5 -640.8,387.6 -248.4,99.1 -512.1,151.7 -797.4,153.8zm583.2 -1525.3c234.8,-1.5 443.9,-57.5 627.6,-163.6 183.7,-105.9 330.6,-255 434.3,-447.7 103.6,-188.4 156.5,-401.9 155,-640.4 -1.3,-238.3 -57,-451.1 -163.1,-642.1 -105.8,-187.1 -254.9,-333.7 -439.8,-441.1 -185.1,-107.1 -394.8,-159.8 -629.7,-158.1 -223.8,1.7 -425.8,57.6 -606,167 -179.9,109.9 -320,259.1 -423.5,447.7 -103.5,192.2 -156.4,405.7 -154.8,644.2 1.4,238.4 56.9,451.3 162.8,638.5 105.9,190.5 247.9,337.6 429.3,441.1 181.3,103.5 384,156.1 607.9,154.5z"/>
   <path class="fil5" d="M41163.4 31522.2l3.4 574.2c70.6,-73.8 142.2,-131.3 215.4,-170.8 72.4,-39.6 163.4,-59.5 271,-60.1 125.6,-1.1 235.1,27.6 329.7,86.2 93.7,59.2 167.8,143.7 220.3,256.2 52.7,112.3 79.1,244.5 79.9,398.7 0.8,114.2 -12.9,218 -41.2,313.3 -29,95.3 -69.9,178.2 -124.5,247.8 -54.8,69.7 -121.6,124.6 -199.4,162.8 -78,38.9 -164.1,58.7 -259.2,59.4 -57.7,0.5 -111.8,-6.2 -162.3,-19.6 -51.3,-13.4 -94.4,-31.3 -130.4,-53.3 -36.3,-22.1 -67.5,-45.1 -92.5,-68.8 -25.6,-23.9 -59.3,-59.4 -100.2,-106.4l0.1 36.7c0.5,71.2 -16.2,124.8 -50.3,161.2 -34,36 -77.1,54.9 -129,55 -53.6,0.6 -95.8,-17.5 -127.2,-53.3 -31.5,-35.7 -47.7,-89.1 -48.2,-160.2l-10.1 -1639.6c-0.7,-75.9 14.3,-133.6 45.2,-173 30,-39 72.2,-58.6 127.4,-59.2 58.4,-0.3 103.1,17.6 134.5,54.2 31.4,37.4 46.9,90 47.5,158.6zm24.5 1115.8c0.9,149.1 35.9,263.9 105.1,344 68.4,80.2 158.1,119.3 269,118.6 95,-0.5 176.2,-42.6 244.4,-125.4 67.4,-82.6 100.9,-200.6 100,-353.1 -0.6,-98.8 -15.5,-184.2 -44,-255.9 -29.1,-70.8 -70.1,-126.4 -122.4,-165.2 -53,-38.8 -114.5,-57.6 -184,-57 -71,0.6 -134.7,20.2 -190.7,59.8 -55.5,39.5 -99.1,96.3 -130.7,170.4 -32.1,74.3 -47.7,162 -46.9,263.8zm1768.6 -571.4l6.7 1085.6c0.4,75.1 -16.7,131.8 -52.6,170.4 -35.5,39.5 -80.8,59.1 -136,59.4 -55.3,0.3 -99.3,-19.5 -133.7,-58.4 -34.6,-38.6 -52.6,-95.3 -53.2,-168.7l-6.5 -1074.2c-0.4,-74.3 16.6,-131.1 50.8,-169.2 34.1,-37.7 78,-56.1 132.9,-56.7 55.2,-0.5 100.9,17.7 137.1,54.9 36.1,37.4 54,90 54.5,156.9zm-187.7 -386.7c-52.6,0.6 -97.6,-15.3 -134.5,-46.8 -37.8,-31.7 -56.5,-77.1 -56.8,-136.3 -0.3,-52.9 18.5,-96.9 56.7,-131.3 37.4,-34.8 82,-52.7 132.3,-53 48.8,-0.5 91.8,14.5 129.7,45.4 37.7,31 56.3,76.2 56.7,136.1 0.5,58.3 -17.8,103.2 -54.3,136.3 -36.4,33 -79.5,49.3 -129.8,49.6zm1984.9 924.1c0.6,111.8 -16.5,214.8 -50.2,309.7 -34.4,95 -84.4,176.1 -150.1,244.3 -65.9,68.5 -143.7,121.7 -235.5,158.5 -91.5,36.7 -194.6,55.7 -308.8,56.6 -114.2,0.7 -216.4,-16.9 -307,-53 -91.4,-36.1 -170.7,-88.1 -237.4,-155.9 -66.6,-67 -117.5,-147.6 -152.5,-240.7 -34.8,-93.2 -53,-196.2 -53.8,-308.7 -0.7,-114 16.2,-218.1 50.9,-312.5 33.6,-94.8 83.6,-175.7 147.9,-243.1 64.1,-67.6 143,-120.1 235.4,-156.9 92.4,-36.5 194.6,-55.7 307.2,-56.6 113.1,-0.7 216.4,17.1 309.3,53 92.9,36.1 172.3,87.5 239,154.7 66.8,67.6 117.4,147.7 152.3,241.1 35,93.2 52.4,197 53.3,309.5zm-377 2.7c-0.9,-153.3 -35.4,-272 -103,-357.1 -68.2,-84.9 -158.9,-126.5 -272.1,-125.5 -73.5,0.2 -138,20 -193.9,58.2 -55.7,38.5 -98.4,94.6 -128.2,169.1 -29.9,74.5 -44.7,161.7 -44,260.7 0.5,98.2 16.2,183.9 46.3,256.8 30,73.4 73.5,128.9 129,167.7 55.3,38.8 120.8,57.5 196.8,56.9 113.5,-0.9 203.3,-44.4 270.6,-130.4 66.6,-86.1 99.4,-205.2 98.5,-356.2zm1705.2 536.5l-0.1 -36.9c-50.1,57.8 -99.3,105.2 -147.9,141.8 -49.1,36 -102.4,64.5 -159,83.9 -57.6,18.8 -119.7,29.1 -187.7,29.2 -90,0.9 -173.5,-17.8 -250.3,-55.6 -76.8,-36.9 -143.5,-90.7 -199.7,-161.4 -56.4,-69.9 -99.2,-152.6 -128.6,-247.4 -30.2,-94.8 -45.3,-198.6 -45.9,-309.7 -1.5,-234.7 55,-418.1 169,-550.6 113.4,-131.8 264.1,-198.2 451,-199.8 108.6,-0.8 200.4,17 275.1,53.9 74.4,37 146.7,93.3 217.4,170.5l-3.5 -554.5c-0.3,-77.4 14.4,-135.8 45.4,-175.1 30.9,-39.5 74.6,-59.9 131.5,-60.2 56.5,-0.6 99.7,17.4 131.1,53.3 31.3,35.7 47,89.2 47.3,159.6l10.5 1656.2c0.3,71.8 -16.1,125.4 -48.5,161.6 -32.7,36.2 -75.7,54.1 -127.7,54.6 -51.8,0.2 -94.3,-17.8 -128,-54.9 -33.9,-36.7 -50.9,-89.3 -51.4,-158.6zm-742.1 -545.8c0.8,101.1 17.1,188.2 49.6,259 31.5,71.6 75.9,125.6 131.2,161.3 55.3,35.6 115.4,53.7 180,53 66.2,-0.3 126.1,-18.3 181.2,-53.2 53.9,-34.9 97.6,-88.5 130,-160.1 32.3,-71 47.6,-159.2 47,-265.1 -0.7,-100.2 -17.4,-186.3 -50.6,-258.7 -33.1,-71.6 -78,-126.2 -133.6,-164.2 -55.2,-37.4 -116,-56.2 -182.3,-55.4 -68.6,0.3 -130,20 -184.2,59.8 -54.1,39.2 -96,96.3 -125.1,169.2 -29.1,72.8 -43.8,157.8 -43.2,254.4zm2519.5 75.7l-733.9 5.3c1.3,85.6 18.7,161.6 52.4,226 34,64.3 79.2,113.2 135.2,145.7 55.5,32.3 116.9,49 183.4,48.2 45.4,-0.1 85.8,-6.2 123.6,-16.9 36.8,-10.7 72.5,-26.9 107.5,-50.3 34,-22.6 66,-46.8 95.4,-72.7 29.3,-25.7 66.6,-61 113.5,-105 19,-17.1 46.9,-25.3 82.7,-25.4 38.3,-0.5 69.6,9.5 93.7,30.3 23.2,21.4 35.4,50.8 35.6,90 0.2,33.4 -12.2,72.7 -38.3,118.7 -26,45.6 -66.5,89.7 -119.9,131.6 -53.2,42.6 -120.8,77.4 -201.2,105.2 -81.2,28.8 -174.8,43 -280.2,43.8 -241.1,1.8 -429.3,-65.6 -563.4,-202.8 -135.1,-136.4 -203.3,-321.8 -204.9,-557.8 -0.5,-110.8 15.7,-213.9 47.8,-309.5 32.2,-95.1 80.2,-177 142.9,-245.1 62.8,-68.3 140.7,-120.9 233.1,-157.7 92.4,-36.4 195.3,-55.7 307.9,-56.6 146.3,-1 272.5,29.4 378.3,90.2 105,60.6 184.8,139.9 237.1,237.6 52.7,98 79.6,198.4 80.2,300 0.6,94.1 -26.3,155 -79.5,183.1 -54.3,28.8 -130.8,43.3 -228.9,44.1zm-735.3 -207.6l680.5 -5.1c-9.5,-128.5 -45.3,-224.2 -105.6,-287.3 -60.3,-63 -139.5,-94.2 -237.8,-93.3 -93.4,0.4 -169.8,33.1 -229.4,98 -59.4,65.4 -95.7,161.5 -107.6,287.7zm2701.8 -386.5l7 1091.2c0.8,124.6 -12.2,231.4 -38,322.2 -25.8,89.5 -68.5,164.2 -126.4,223.5 -57.9,59 -134.3,103.3 -229.1,132.8 -94.7,28.7 -212.8,44 -354.3,44.9 -129.5,0.8 -245.3,-16.5 -347.1,-51.9 -101.5,-35.3 -180,-81.7 -235.4,-138.7 -55.6,-57.2 -84,-115.8 -84.3,-175.9 -0.3,-46.4 15.6,-84.1 46.5,-113 31.2,-29.1 68.5,-43.6 112.3,-43.9 55.1,-0.6 103.2,23.1 145.1,71.6 20,24.5 41.9,49.9 63.6,75.3 21.8,24.5 45.1,46 71.3,64 26.6,17.4 57.7,30 94.6,38.6 36.7,8.8 79.2,12 126.3,11.7 97.3,-0.5 173,-14.5 226.5,-41.4 53.3,-27.6 90.6,-65.5 111.7,-114.2 21.4,-49 33,-101.8 36.7,-156.7 3.7,-55.4 5.5,-144.6 7.3,-267.7 -57.9,81 -123.9,143 -199.4,186.1 -75.6,42.8 -165.8,64.3 -270.5,64.8 -125.2,1 -235.6,-29.9 -329.3,-94.1 -94.7,-63.1 -167.3,-151.9 -218.1,-267.7 -51.1,-115.4 -77.4,-248.5 -78.4,-399.2 -0.6,-112.9 13.8,-215.3 44.4,-306.6 29.8,-90.3 73.4,-167.4 129.5,-230.9 56.4,-62.7 122.4,-110.3 196.5,-142.7 74.1,-31.6 155.4,-48.2 244.2,-48.8 106,-0.9 198.9,19.3 277.5,59.5 77.5,40.1 150.7,103.4 217.4,190.3l-0.4 -50.8c-0.2,-65.2 15.4,-115.7 48,-151.9 31.9,-36.1 73,-53.9 123.4,-54.2 72.6,-0.8 120.9,21.9 145,69 23.4,47 35.9,115.4 36.3,204.7zm-1084.7 483.9c1,152.1 35.4,266.6 101.9,343.5 66.8,77.9 153.4,116.4 258.9,115.6 62.3,-0.6 121.2,-17.8 176.1,-51.7 54.9,-33.2 100.2,-83.8 134.8,-151.9 34,-68.1 51,-149.7 50.4,-246.3 -0.9,-152.5 -35.2,-272.3 -102.6,-356.9 -68.5,-85.2 -157.5,-126.9 -267.7,-126.2 -106.9,0.8 -192.2,42.4 -256.4,124.2 -64.3,82.8 -96.2,198.6 -95.3,349.6zm1805.5 220.4l1.9 313.5c0.5,76 -16.8,133.7 -52.6,171.3 -35.6,39 -81.1,58.2 -136.2,58.6 -54.3,0.6 -99.2,-18.3 -133.5,-57 -35.5,-38.3 -53.5,-94.8 -54,-169.9l-6.3 -1045.6c-1.2,-168.2 59.8,-253.5 182.1,-254.4 62.4,-0.6 107.1,19.2 135.1,58 27.7,39.1 43,97.4 46,174.7 45.1,-77.7 90.9,-136.3 137.8,-175.8 46.9,-39.7 109,-60 188.2,-60.5 79.1,-0.7 155.8,18.9 230.2,57.5 74.6,38.6 111.6,90.8 112.2,155.7 0.3,46.4 -15.5,84.8 -46.5,114.7 -31.8,29.6 -66,44.9 -101.9,45.4 -13.7,0.1 -47.4,-8.6 -100,-25 -53,-16.2 -99.3,-24.9 -139.9,-24.5 -55.1,0.3 -99.8,15.3 -134,44.3 -35,28.8 -61.8,71.9 -80.5,129.1 -19.8,56.8 -32.1,124.9 -38.8,202.9 -6.6,79.2 -10.2,174.4 -9.3,287.1zm1741.1 317.9c-89.7,70.8 -177.3,124.4 -261.5,159.9 -85.3,36.5 -180.2,55.1 -285.5,55.7 -96.8,0.7 -181.7,-18 -254.6,-55.7 -72.7,-37.1 -129.7,-88.4 -169.3,-153.7 -39.7,-64.6 -60.2,-134.6 -60.5,-210.5 -0.7,-102.8 31.5,-191.2 96.6,-264.1 64.1,-73 153.4,-121.5 266.6,-147.4 23.8,-5.8 82.8,-18.1 177.9,-39 93.9,-19.7 174.7,-37.9 242.3,-54.2 67,-16.8 139.6,-36.2 218.4,-60 -4.5,-98.9 -25,-171.5 -60.5,-217.6 -36.2,-46.2 -109,-68.6 -219.9,-67.8 -95.1,0.8 -167,14.6 -214.7,41.4 -48.4,26.8 -88.9,67.1 -122.9,121 -34.1,53.6 -58.7,87.9 -72.7,105 -14.3,16.8 -44.7,25.8 -91.7,26.1 -42.4,0.5 -78.3,-12.7 -108.9,-39.7 -31.4,-26.5 -46.8,-61.2 -47.1,-103.8 -0.3,-66.2 22.4,-130.2 69.1,-193.1 46.1,-62.6 118.3,-114 217.2,-155.5 98.6,-40.8 222.4,-61.7 370,-62.8 165.5,-1.3 294.8,17.3 390.1,55.7 94.5,38.5 161.1,99.6 200.8,183.1 39.7,84.4 59.6,196.1 60.3,335.6 0.6,88 1,162.4 0.7,223.6 -0.4,61.6 0,130.3 -0.4,205.3 0.6,71 13.1,144.5 36.7,220.8 23.6,76.4 35,126.2 35.3,147.7 0.2,38.2 -18,73.6 -53.7,105 -35.8,32.3 -77.1,48.5 -122.9,48.8 -38.3,0.3 -75.9,-18 -113.5,-53.6 -38,-35.6 -78.8,-88.1 -121.8,-156.4zm-27.9 -543.9c-55.1,20.5 -134.9,42.8 -239.2,65.7 -104.5,24.1 -177.1,40.5 -217.7,51.2 -40.7,10.6 -78.8,31.6 -115.4,63.4 -36.6,31.4 -54.8,73.7 -54.4,128.8 0.2,56.6 22.3,105.3 65.5,145 43.5,39.6 100.3,59.4 169.8,58.6 74.2,-0.4 143,-17.8 205.7,-51.2 63,-33.1 108.3,-74.9 137.4,-126.4 33.2,-56.9 49.4,-150.3 48.6,-280.5l-0.2 -54.5zm1781.6 528l-0.1 -37c-50.1,58.2 -99.3,105.6 -147.7,141.9 -49.3,36.3 -102.6,64.5 -159.2,84 -57.5,18.9 -119.6,28.8 -187.6,29.4 -90.2,0.8 -173.5,-17.8 -250.1,-55.6 -77.1,-36.9 -143.8,-91 -200,-161.5 -56.4,-69.8 -99.2,-152.7 -128.5,-247.5 -30.1,-95.1 -45.1,-198.4 -46,-309.7 -1.3,-234.8 54.9,-418.1 169.3,-550.7 113.3,-131.8 263.8,-198.4 450.7,-199.5 108.6,-0.9 200.5,16.9 275.1,53.9 74.4,36.9 146.7,93.1 217.4,170l-3.2 -554.1c-0.6,-77.6 14.2,-136.1 45.1,-175.5 30.9,-39.5 74.6,-59.5 131.5,-60.1 56.7,-0.3 99.9,17.7 131.3,53.4 31.3,36 46.7,89.2 47.3,159.4l10.3 1656.2c0.6,72.1 -16,125.7 -48.6,162 -32.5,36.2 -75.5,54.2 -127.4,54.3 -52,0.6 -94.2,-17.4 -128.2,-54.9 -33.6,-36.6 -50.9,-88.9 -51.4,-158.5zm-741.8 -545.9c0.4,101.5 17.1,188.5 49.5,259.3 31.6,71.7 75.7,125.7 131.2,161.3 55.3,35.4 115.2,53.4 179.9,53.1 66.3,-0.6 126.1,-18.6 181.1,-53.5 54.2,-34.6 97.6,-88.4 129.9,-159.8 32.4,-71.2 47.7,-159.2 47.1,-265.6 -0.6,-99.7 -17.1,-185.9 -50.3,-258.3 -33.3,-71.5 -78.3,-126.6 -133.6,-164.4 -55.4,-37.2 -116.1,-55.9 -182.5,-55.6 -68.6,0.6 -130.1,20.4 -184.2,59.8 -54.2,39.6 -96,96.7 -125,169.5 -29.3,72.9 -44,157.9 -43.1,254.2zm2423.1 536.8c-89.7,70.9 -177.3,124.3 -261.7,160.3 -85.2,36.3 -180.3,54.8 -285.7,55.7 -96.7,0.2 -181.3,-18.2 -254.3,-56.2 -72.9,-36.9 -129.9,-88.2 -169.4,-153.7 -39.5,-64.5 -60,-134.4 -60.5,-210.2 -0.6,-103.1 31.7,-191.1 96.6,-264.3 64.3,-73 153.4,-121.6 266.4,-147.3 24.1,-5.5 83.1,-18.1 178.2,-38.8 94,-19.8 174.5,-38 242.4,-54.6 67,-16.3 139.6,-35.9 218.3,-60 -4.6,-98.9 -25.1,-171.5 -60.4,-217.3 -36.2,-46.2 -109,-68.8 -220,-68.1 -95.1,0.8 -166.9,15 -214.6,41.8 -48.6,26.4 -89.1,66.7 -123.2,120.6 -33.9,53.9 -58.5,88.2 -72.5,105 -14.2,16.9 -44.7,26 -91.8,26.3 -42.2,0.3 -78.3,-13 -108.9,-40 -31.3,-25.9 -46.8,-61.2 -46.9,-103.3 -0.5,-66.3 22.4,-130.5 69.1,-193.3 46,-62.3 118.1,-114.1 216.8,-155.5 98.8,-41 222.4,-61.5 370.4,-62.8 165.4,-1.1 294.8,17.1 390,55.5 94.5,38.6 161.2,99.5 200.9,183.2 39.5,84.4 59.4,196.2 60.2,335.7 0.7,87.8 1.1,162.2 0.7,223.6 -0.5,61.6 0.1,130.4 -0.3,205.1 0.4,71.3 12.7,144.5 36.6,221.2 23.6,76.5 35.1,125.8 35.1,147.5 0.4,38.3 -18,73.4 -53.6,104.9 -35.8,32.3 -77.1,48.5 -122.7,48.8 -38.3,0.3 -76,-17.7 -113.7,-53.5 -37.8,-35.7 -78.7,-88.2 -121.6,-156.5zm-28.2 -543.8c-54.8,20.5 -134.6,42.8 -239,65.6 -104.4,24.1 -177.2,40.4 -217.8,51.3 -40.7,10.7 -78.9,31.9 -115.4,63.2 -36.4,31.6 -54.7,73.7 -54.2,128.8 0.1,57 22.3,105.5 65.5,145.1 43.5,39.7 100.2,59.3 169.7,58.5 74.3,-0.3 142.9,-17.8 205.8,-50.8 62.9,-33.2 108,-75 137.4,-126.3 33.2,-57.2 49.2,-150.7 48.5,-280.8l-0.4 -54.5zm1053.2 -1123.3l3.6 574.3c70.7,-73.9 142.3,-131.2 215.4,-170.8 72.4,-39.7 163.4,-59.4 271.1,-60.3 125.4,-1 235,27.9 329.5,86.3 93.9,59.1 168,144.1 220.6,256.2 52.5,112.3 78.9,244.5 79.8,398.7 0.7,114.1 -13.1,218.2 -41.2,313.3 -28.9,95.2 -70.1,178.2 -124.7,247.9 -54.7,69.8 -121.4,124.5 -199.4,162.8 -78,38.9 -164.1,58.6 -259.2,59.5 -57.5,0.2 -111.9,-6.5 -162.3,-19.7 -51.1,-13.2 -94.4,-31.4 -130.5,-53.3 -36,-22.2 -67.1,-45.3 -92.2,-68.8 -25.7,-23.6 -59.6,-59.6 -100.5,-106.4l0.2 36.7c0.4,71.1 -15.9,124.6 -50,161.1 -34.3,36.1 -77.1,54.8 -129,55.3 -53.6,0.4 -96.1,-17.7 -127.4,-53.4 -31.3,-35.9 -47.7,-89.2 -48.1,-160.4l-10.3 -1639.5c-0.2,-75.9 14.3,-133.7 45.3,-173 30.2,-39.4 72.2,-58.8 127.3,-59 58.5,-0.6 103.3,17.4 134.6,54 31.3,37.3 46.9,89.8 47.3,158.5zm24.6 1115.7c0.9,149.4 35.9,264.1 105.1,344 68.4,80.4 158.1,119.6 269.1,119 95,-0.7 176.4,-42.9 244.6,-126 67.2,-82.5 100.9,-200.2 99.7,-352.8 -0.3,-98.7 -15.3,-184.1 -43.8,-255.7 -29.1,-70.9 -70.3,-126.6 -122.4,-165.4 -52.9,-39 -114.7,-57.4 -184.2,-57.1 -71,0.6 -134.7,20.3 -190.4,59.8 -55.8,39.7 -99.4,96.4 -130.7,170.4 -32.4,74.1 -47.7,162.5 -47.2,263.8zm1362.6 517l-10.1 -1628.4c-0.4,-75.7 16.1,-132.3 49.4,-171.2 33.3,-38.6 77.8,-57.9 134.6,-58.5 56.6,-0.3 103,18.7 138.4,55.7 34.5,38.1 52.7,95.6 53,171.4l10.1 1628.5c0.7,76 -16.5,133.6 -51.6,171.3 -35.7,38.6 -81.1,58.3 -136.9,58.5 -55.2,0.6 -99.2,-19 -134,-57.9 -34.3,-39.2 -52.4,-95.7 -52.9,-169.4zm1808.4 -456.1l-733.7 5.3c1.3,85.5 18.6,161.1 52.4,225.6 34,64.6 78.9,113.6 135.2,146 55.4,32.3 116.9,48.7 183.1,48.2 45.8,-0.3 86.2,-6.4 123.9,-17 36.5,-10.4 72.4,-26.6 107.6,-50.4 34,-22.6 65.8,-46.9 95,-72.3 29.5,-25.9 66.9,-61.4 113.8,-105.5 19,-17.1 46.8,-25.3 82.8,-25.4 38.3,-0.2 69.5,9.9 93.4,30.6 23.5,21.4 35.5,50.6 35.8,89.9 0.1,33.4 -12.2,72.6 -38.4,118.4 -25.9,45.7 -66.3,89.7 -119.8,131.9 -53.1,42.7 -120.7,77.7 -201.3,105.3 -81.1,28.3 -174.6,42.7 -280.1,43.6 -241.1,1.7 -429.3,-65.6 -563.5,-202.7 -135.1,-136.4 -203.3,-322.2 -204.8,-557.8 -0.6,-110.8 15.6,-214.1 47.8,-309.3 32,-95.5 80.3,-177.3 142.9,-245.6 62.9,-68.1 140.7,-120.8 233.1,-157.2 92.4,-36.8 195.3,-56.1 307.9,-56.7 146.2,-1.2 272.6,29.1 378.3,90 105.1,60.7 184.8,140 237.1,237.7 52.5,97.9 79.5,198.3 80,299.8 0.7,94.1 -26,155.1 -79.2,183.4 -54.4,28.5 -130.9,43.5 -229.2,44.2zm-735.2 -207.8l680.6 -5.2c-9.6,-128.5 -45.3,-224.2 -105.7,-287.6 -60.3,-62.6 -139.4,-93.9 -237.7,-93.2 -93.5,0.8 -169.8,33.4 -229.4,98.3 -59.5,65.2 -95.6,161.1 -107.7,287.7zm3097.2 647.6l-0.1 -36.8c-50.1,57.8 -99.2,105.2 -147.7,141.4 -49.2,36.4 -102.6,64.7 -159.2,84.2 -57.4,18.8 -119.7,28.7 -187.6,29.5 -90.1,0.6 -173.4,-18 -250.4,-55.8 -76.8,-36.9 -143.5,-90.7 -199.7,-161.5 -56.4,-69.9 -99.2,-152.6 -128.6,-247.6 -30.1,-94.5 -45,-198.4 -45.9,-309.4 -1.3,-234.9 54.9,-418.3 169,-550.8 113.7,-131.9 264.2,-198 451,-199.5 108.6,-0.9 200.5,16.9 275.1,53.9 74.4,36.8 146.7,93.1 217.5,169.9l-3.6 -554.1c-0.3,-77.7 14.5,-135.7 45.4,-175.1 30.9,-39.5 74.6,-59.9 131.5,-60.1 56.7,-0.6 99.8,17.4 131.2,53.3 31.4,35.8 46.9,89 47.5,159.2l10.2 1656.6c0.3,71.7 -16,125.2 -48.6,161.7 -32.6,35.9 -75.6,53.9 -127.4,54.5 -52,0.3 -94.5,-17.8 -128.2,-55.4 -33.9,-36.5 -50.9,-88.8 -51.4,-158.2zm-742.1 -545.9c0.8,101.2 17.1,188.4 49.6,259.1 31.6,71.6 75.9,125.7 131.2,161.4 55.5,35.4 115.4,53.6 180.1,53.1 66.1,-0.8 126.2,-18.7 181.1,-53.4 54.2,-34.8 97.6,-88.5 129.9,-160.1 32.4,-71.1 47.7,-159 47.1,-265.1 -0.6,-100.1 -17.1,-186.3 -50.3,-258.7 -33.3,-71.5 -78.2,-126.2 -133.8,-164.5 -55.1,-37 -115.9,-55.8 -182.3,-55.1 -68.6,0.2 -130.1,20.1 -184.1,59.4 -54.2,39.7 -96.2,96.7 -125.3,169.7 -29.1,72.8 -43.8,157.7 -43.2,254.2zm1843.1 -561.3l6.7 1085.6c0.6,74.7 -16.8,131.6 -52.4,170.4 -35.8,39.3 -81,58.9 -136.2,59.5 -55.1,0.1 -99.3,-19.5 -133.9,-58.3 -34.4,-38.9 -52.4,-95.3 -52.8,-169.1l-6.7 -1074.4c-0.5,-73.9 16.6,-131 50.8,-168.7 34.1,-37.8 77.8,-56.6 133,-56.9 55.1,-0.3 100.8,17.5 136.8,55 36.4,37.4 54.2,89.8 54.7,156.9zm-187.7 -386.6c-52.9,0.3 -97.5,-15.3 -134.5,-47 -37.8,-32 -56.4,-77.3 -56.7,-136.3 -0.4,-52.7 18.6,-96.7 56.6,-131.5 37.2,-34.4 82,-52.4 132.3,-52.9 48.8,-0.2 92,14.5 129.7,45.5 37.7,30.9 56.4,76.3 56.7,136.4 0.5,58.2 -17.8,103 -54.3,135.9 -36.7,32.9 -79.5,49.1 -129.8,49.9zm1790 1197.8c0.6,103.9 -23.7,192.5 -73.4,266.5 -49.9,74.6 -124.5,131 -222.5,169.1 -98.8,39.2 -218.5,59.3 -359.8,60 -134.8,1.4 -250.1,-18.7 -346.8,-59.5 -97.2,-40.2 -168.5,-91.4 -214.4,-153.4 -45.9,-61.1 -69.4,-123.5 -69.8,-185.7 -0.2,-40.7 13.9,-76.1 43.3,-105.8 29.4,-29.6 66,-44.2 110.9,-44.8 39.1,-0.2 69.3,9.3 91,28.2 21.7,19.1 41.9,46.2 61.4,80.2 38.7,66.6 85.2,116.7 139,149 53.9,32.6 127.3,49 220,48.3 74.9,-0.8 136.5,-17.9 184.9,-52 47.8,-33.9 71.3,-72.2 71,-115.4 -0.3,-66 -25.4,-114 -75.9,-143.9 -50.5,-29.3 -132.8,-57.5 -247.2,-84.6 -129.7,-31 -235.2,-63.7 -316.1,-99.2 -81.7,-34.2 -146.7,-80.4 -195.7,-138.1 -49.2,-57.4 -74.5,-128.2 -74.9,-211.9 -0.4,-76.1 21.5,-147 66.4,-214.5 44.6,-66.6 110.4,-120.8 198.1,-161.3 86.7,-40.5 192.9,-61.2 316.5,-62.1 96.7,-0.9 184.7,9.1 262.3,28.3 77.5,19.4 142.4,46.3 194.6,79.3 52.1,34.1 91.5,71 119,111.7 27.3,41.6 41.1,82 41.4,121.1 0.3,43.3 -14,78.6 -42.7,106.5 -29.3,28.3 -69.9,42.1 -123.4,42.7 -38.4,0.2 -71.2,-11 -98.3,-32.9 -27.5,-21.6 -58.8,-54.8 -93.3,-98.4 -29,-36.5 -62.7,-65.8 -101.2,-87.3 -38.6,-21.3 -90.5,-32.1 -156.7,-31.5 -67.8,0.4 -124.6,15.3 -169,44.2 -45.5,29.4 -67.5,65.4 -67.2,108.5 0.2,39.2 17.2,71.7 50.2,96.1 32.8,25.7 77.7,45.7 134.6,62.4 56,16.4 132.8,35.6 231,58.9 116.7,27 212.1,60.9 286.6,99.4 73.6,38.6 129.8,85.1 168.6,138.3 38,53.5 57.5,114.7 57.9,183.7zm659.2 -829.9l0.2 44.7c70.6,-87.5 143.7,-152.1 219.4,-193.5 75.5,-41.3 161.6,-62.7 257.6,-63.3 115.8,-0.7 222,28.1 320.1,87.1 97.7,59.4 175,145.7 232.3,259.5 57.3,114.7 86.2,250.3 87,407.4 0.8,115.9 -14.4,221.4 -46.6,318.5 -32.2,96.7 -76.3,178.5 -132.6,244.3 -56.5,66 -123.9,116.8 -201.2,152.4 -77.1,36.7 -161,54.7 -249.6,55.6 -106.9,0.7 -197.4,-20.1 -270.4,-62.8 -72.8,-42.5 -142.8,-105.2 -209.3,-188.5l3.4 564.4c0.9,165.2 -58.4,248 -179,248.8 -70.3,0.6 -116.7,-20.6 -140.3,-62.8 -23.4,-42.7 -34.9,-105.2 -35.4,-186.7l-10.3 -1620.5c-0.4,-71 15.4,-124.5 46.2,-161 31.1,-35.1 73.1,-53 126.7,-53.6 53.6,-0.2 96.8,17.8 130.5,53.6 33.8,35.8 51.1,88.1 51.3,156.2zm739.8 540.1c-0.6,-98.9 -16.4,-184.6 -47.1,-255.3 -30.9,-70.6 -73.4,-124.8 -127.4,-162.8 -53.5,-37.1 -113.7,-55.9 -178.3,-55.6 -103.8,0.9 -190.7,42.2 -261.2,124.1 -70.5,82.9 -105.7,202.8 -104.9,362 1,149.1 37,265.6 108.6,348.2 71.3,82.4 158.8,123.2 263.5,122.7 62.2,-0.6 119.6,-19.5 172.9,-56 53.4,-36.2 95.4,-91.5 127.4,-164.6 31.6,-72.6 47.2,-159.9 46.5,-262.9zm2083.6 -8c0.5,111.8 -16.2,215 -50,309.5 -34.7,95.3 -84.4,176.3 -150.3,244.8 -65.7,68.4 -143.7,121.4 -235.3,158 -91.8,36.7 -194.7,55.9 -308.8,56.6 -114.2,1.1 -216.4,-16.7 -307.1,-52.8 -91.2,-35.9 -170.5,-88.3 -237.3,-155.5 -66.5,-67.3 -117.4,-147.8 -152.5,-241.1 -35,-93 -53.1,-195.9 -53.8,-308.7 -0.7,-114 16.2,-218.1 50.7,-312.6 33.8,-94.7 83.5,-175.6 147.9,-243 64.3,-67.8 142.9,-120.1 235.3,-156.7 92.4,-36.9 194.6,-55.9 307.2,-56.8 113.5,-0.8 216.7,17.1 309.7,53.1 92.5,36 172,87.4 238.7,154.8 66.7,67.5 117.5,147.7 152.5,240.8 35.1,93.2 52.5,196.8 53.1,309.6zm-377 2.7c-0.8,-153.5 -35.1,-272 -102.7,-357 -68.5,-85 -158.9,-126.7 -272.4,-125.6 -73.4,0.5 -138,19.9 -193.7,58 -55.7,38.9 -98.5,94.8 -128.4,169.3 -29.9,74.8 -44.5,161.9 -43.9,260.7 0.6,98.5 16.3,183.7 46.3,256.7 30,73.5 73.5,129.2 128.8,167.8 55.4,38.8 121.1,57.5 197,56.9 113.3,-0.9 203.3,-44.6 270.8,-130.4 66.4,-86 99,-205.3 98.2,-356.2zm1884.1 258.7c0.8,103.7 -23.4,192.6 -73.4,266.5 -49.8,74.7 -124.4,131 -222.5,169.3 -98.8,39.2 -218.4,59.2 -359.7,60.3 -134.9,0.9 -250.2,-19 -346.9,-60 -96.9,-39.9 -168.4,-91.1 -214.4,-153.4 -45.8,-61 -69.4,-123.3 -69.8,-185.5 -0.1,-40.9 14,-75.9 43.4,-105.6 29.3,-29.9 65.9,-44.6 110.8,-44.9 39.2,-0.3 69.4,9.1 91,27.9 22,19.2 42,46.1 61.4,80.4 38.7,66.6 85.2,116.8 139.1,149.3 53.8,32.2 127.3,48.5 219.9,47.8 75.2,-0.4 136.3,-17.7 184.9,-51.7 47.8,-34 71.3,-72.3 71.3,-115.6 -0.6,-66.2 -25.6,-113.9 -75.9,-143.7 -50.8,-29.4 -133.1,-57.8 -247.5,-84.4 -129.6,-31.3 -235.1,-64.2 -316,-99.4 -81.6,-34.6 -146.6,-80.2 -195.8,-138.3 -49.1,-57.2 -74.1,-128 -74.7,-211.8 -0.6,-76 21.4,-147.1 66.6,-214.4 44.2,-66.8 110,-120.7 197.7,-161.3 86.8,-40.7 192.9,-61.3 316.8,-62.2 96.6,-0.7 184.5,9 262,28.4 77.6,19.4 142.5,46.2 194.6,79 52.2,34.1 91.5,71.3 118.9,111.8 27.4,41.5 41.2,81.9 41.5,121.1 0.3,43.3 -14,78.6 -42.3,106.8 -29.7,28 -70,41.9 -123.6,42.2 -38.3,0.2 -71.2,-10.7 -98.5,-32.7 -27.4,-21.5 -58.7,-54.9 -93.3,-98.3 -29,-36.8 -62.7,-66 -101.2,-87.2 -38.3,-21.3 -90.2,-32.1 -156.7,-31.8 -67.7,0.6 -124.6,15.3 -169,44.5 -45.4,29.2 -67.5,65.5 -67.2,108.3 0.2,39.1 17.2,71.8 50.2,96.3 32.9,25.3 77.7,45.9 134.6,61.9 56,16.8 132.8,36 231.1,59.4 116.6,26.9 212,60.9 286.5,99.4 73.6,38.5 129.9,85.2 168.6,138.4 37.9,53.1 57.5,114.6 57.9,183.3zm1268.5 270.5c-90,70.7 -177.6,124.1 -261.9,160 -85.2,36.6 -180.2,54.8 -285.7,55.5 -96.5,0.9 -181.3,-17.8 -254.3,-55.7 -72.8,-37 -130,-88.4 -169.3,-153.8 -39.6,-64.2 -60,-134.4 -60.4,-210.2 -0.8,-103.2 31.4,-191.2 96.5,-264.2 64.2,-73.4 153.2,-121.8 266.5,-147.4 23.9,-5.8 83,-18.3 177.8,-39 94.2,-19.9 174.8,-37.8 242.6,-54.6 66.8,-16.3 139.6,-36.1 218.3,-59.7 -4.4,-99.1 -24.9,-171.5 -60.3,-217.6 -36.3,-46 -109.1,-68.5 -220.1,-67.8 -95.1,0.5 -167,14.7 -214.7,41.6 -48.3,26.7 -88.8,66.6 -122.9,120.5 -34,53.9 -58.7,88.1 -72.7,105 -14.4,17.1 -44.7,26 -91.7,26.4 -42.4,0.3 -78.3,-13 -108.9,-40.1 -31.3,-26.1 -46.7,-61.1 -46.9,-103.2 -0.6,-66.3 22.3,-130.3 69.1,-192.9 45.9,-62.9 118.1,-114.6 216.8,-156.1 98.9,-40.4 222.5,-61.3 370.3,-62.4 165.1,-1.3 294.8,17.1 390,55.4 94.4,38.3 161.2,99.4 200.9,183 39.7,84.4 59.5,196.3 60.3,336 0.6,87.5 1,161.9 0.7,223.4 -0.6,61.6 0,130.3 -0.4,205.2 0.6,71.1 12.9,144.6 36.7,221.1 23.6,76.3 35,125.7 35.1,147.2 0.3,38.7 -17.9,73.7 -53.6,105.1 -35.7,32.2 -77.2,48.7 -122.8,49 -38.3,0.3 -75.9,-17.8 -113.8,-53.5 -37.7,-35.8 -78.6,-88.1 -121.3,-156.4zm-28.4 -543.8c-54.8,20.2 -134.6,42.5 -239.2,65.8 -104.4,23.9 -176.9,40.4 -217.4,50.9 -40.7,10.9 -79.1,31.7 -115.6,63.1 -36.7,31.5 -54.7,73.9 -54.2,129.3 0.3,56.5 22.2,104.9 65.5,144.6 43.5,39.7 100.2,59.3 169.7,59 74.3,-0.7 143,-18 205.8,-51.1 62.9,-33.4 108,-75.2 137.4,-126.6 33.2,-56.8 49.3,-150.4 48.5,-280.5l-0.4 -54.4zm1053.1 -1123.2l3.6 574.2c70.4,-74.2 142,-131.5 215.2,-171.1 72.6,-39.7 163.4,-59.4 271.1,-60.3 125.5,-0.9 235,27.7 329.6,86.3 93.9,59.3 168,144.1 220.3,256.4 52.8,112.1 79.2,244.6 80.1,398.6 0.8,114.4 -13,218.1 -41.2,313.6 -29.2,95.2 -70,177.9 -124.7,247.6 -54.8,69.7 -121.4,124.8 -199.4,162.8 -78,38.9 -164.1,58.7 -259.1,59.3 -57.6,0.7 -111.9,-6.3 -162.4,-19.7 -51.1,-13 -94.3,-31 -130.4,-53.1 -36.2,-22.1 -67.5,-45 -92.3,-68.8 -25.8,-23.8 -59.5,-59.5 -100.4,-106.2l0.2 36.7c0.4,71 -16.2,124.8 -50.2,160.8 -34.2,36.3 -77.2,55 -129.1,55.4 -53.6,0.3 -95.8,-17.7 -127.3,-53.6 -31.3,-35.6 -47.5,-88.8 -48.1,-160.2l-10.1 -1639.6c-0.6,-75.6 14.2,-133.6 45.3,-172.7 29.8,-39.5 72,-59 127.3,-59.3 58.3,-0.6 103.2,17.5 134.4,54.1 31.5,37.5 46.9,89.8 47.5,158.8zm24.5 1115.4c0.9,149.3 36,264.1 105.2,344.4 68.3,79.9 158,119.2 269,118.5 95.1,-0.7 176.1,-42.9 244.3,-125.5 67.5,-82.6 100.9,-200.4 100,-352.9 -0.6,-99.1 -15.4,-184.5 -43.9,-256.3 -29.1,-70.7 -70.2,-126.4 -122.3,-165.1 -53.1,-38.7 -114.6,-57.5 -184.1,-57.2 -71.1,0.7 -134.8,20.3 -190.6,60 -55.7,39.5 -99.2,96.5 -130.8,170.2 -32.2,74.6 -47.7,162.5 -47,263.9zm1363.2 517.1l-10.1 -1628.3c-0.5,-75.9 15.8,-132.7 49.2,-171.2 33.5,-38.6 77.9,-58.2 134.8,-58.5 56.7,-0.6 102.9,18.4 138.3,55.7 34.7,38 52.7,95.4 52.9,171.4l10.4 1628.2c0.5,76 -16.9,133.4 -51.9,171.4 -35.7,38.6 -81,58.1 -137,58.7 -55.1,0.3 -98.9,-19.3 -133.5,-58.2 -34.6,-39.1 -52.7,-95.5 -53.1,-169.2zm1808.6 -456.1l-734 5.3c1.4,85.3 18.6,160.9 52.6,225.2 33.8,64.8 79,113.9 135,146.3 55.4,32.4 116.9,48.6 183.4,48.3 45.5,-0.5 86.2,-6.3 123.6,-16.9 36.7,-10.7 72.4,-26.9 107.6,-50.4 34.1,-22.9 65.8,-47.1 95.2,-72.5 29.2,-26 66.7,-61.2 113.6,-105.6 19,-16.9 46.8,-25.1 82.8,-25.4 38.3,0 69.5,9.9 93.4,30.6 23.5,21.5 35.5,50.9 35.8,90 0.2,33.6 -12.2,72.7 -38.4,118.2 -25.9,45.9 -66.3,89.9 -119.6,132.1 -53.3,42.8 -120.9,77.7 -201.5,105 -81.1,28.7 -174.5,43.1 -280,43.7 -241.2,1.8 -429.4,-65.5 -563.7,-202.7 -135,-136.5 -203.2,-322 -204.6,-557.4 -0.6,-111.1 15.5,-214.4 47.8,-309.5 32.2,-95.3 80,-177.1 142.8,-245.6 62.9,-68.2 140.7,-120.6 233.1,-157.3 92.4,-36.8 195.3,-55.8 308.1,-56.5 146,-1.1 272.4,29.2 378.2,89.8 105,60.9 184.6,139.9 237,237.7 52.7,97.9 79.5,198.3 80.3,299.7 0.4,94.4 -26.3,155.1 -79.7,183.8 -54,28 -130.7,43.2 -228.7,44.1zm-735.5 -208.2l680.6 -4.7c-9.6,-128.8 -45.3,-224.1 -105.8,-287.7 -60.1,-62.8 -139.4,-93.9 -237.6,-93.3 -93.4,0.9 -169.8,33.1 -229.4,98.5 -59.5,65 -95.7,161 -107.7,287.2zm2408.6 -448.7l0.1 45c70.6,-87.8 143.8,-152.4 219.3,-193.4 75.6,-41.2 161.7,-62.6 257.7,-63.4 115.7,-0.9 222.1,28 319.8,87.1 98,59.1 175.1,145.4 232.6,259.4 57.3,114.6 86.2,250.2 87.1,407.3 0.7,115.8 -14.8,221.6 -46.7,318.4 -32.2,97 -76.5,178.7 -132.6,244.5 -56.4,65.8 -124.1,116.6 -201.1,152.5 -77.1,36.5 -161.1,54.7 -249.9,55.4 -106.7,0.8 -197.2,-20.3 -270.2,-62.8 -72.9,-42.6 -142.7,-105.2 -209.6,-188.6l3.6 564.6c1,165.3 -58.5,248.2 -178.8,249.1 -70.5,0.3 -116.8,-21.1 -140.4,-63.3 -23.3,-42.8 -34.9,-105.1 -35.7,-186.7l-9.9 -1620.1c-0.4,-71.1 15.3,-125 46.2,-161.1 30.9,-35.4 73.1,-53.2 126.7,-53.8 53.5,-0.3 96.7,17.8 130.4,53.6 33.7,35.8 51.1,88.3 51.4,156.1zm739.7 540.1c-0.7,-99.1 -16.3,-184.1 -47.3,-255.3 -30.8,-70.8 -73.3,-124.8 -127.2,-162.7 -53.8,-36.9 -113.6,-55.8 -178.4,-55.6 -104,0.9 -190.7,42.1 -261.1,124.4 -70.7,82.6 -105.9,202.8 -104.9,361.6 1,149.4 36.8,265.9 108.6,348.3 71.3,82.4 158.8,123.3 263.3,122.4 62.4,-0.3 119.8,-19.1 173.1,-55.4 53.1,-36.3 95.1,-91.9 127.4,-164.7 31.7,-72.8 47.1,-160.1 46.5,-263.2zm1052.3 220.9l1.9 313.9c0.4,75.7 -16.8,133.5 -52.6,171.5 -35.6,38.6 -80.8,57.9 -135.9,58.3 -54.5,0.2 -99.2,-18.5 -133.8,-57.3 -35.5,-38.3 -53.5,-94.7 -53.9,-169.9l-6.4 -1045.3c-1.2,-168.5 59.8,-253.6 182.1,-254.6 62.4,-0.3 107.1,19.2 135.3,58.3 27.5,39 42.9,97 45.7,174.5 45.2,-77.6 91.1,-136.4 138,-176 47.1,-39.2 108.9,-59.7 188.2,-60.5 79.1,-0.6 155.8,18.9 230.3,57.6 74.4,38.7 111.5,91.1 112.1,155.6 0.2,46.5 -15.6,84.8 -46.6,114.6 -31.6,29.8 -65.8,45.5 -101.9,45.5 -13.7,0.1 -47.1,-8.6 -100,-24.8 -52.7,-16.4 -98.9,-25 -139.8,-24.4 -55.2,0 -99.6,15 -133.9,44 -35,28.9 -61.8,72.3 -80.7,129.2 -19.6,56.7 -32.1,124.8 -38.8,203 -6.5,79 -9.9,174.2 -9.3,286.9zm2157.5 -236.9c0.7,111.8 -16.2,214.8 -49.9,309.7 -34.8,95.1 -84.4,176.1 -150.3,244.6 -65.8,68.2 -143.8,121.5 -235.3,158 -91.8,36.7 -194.6,55.9 -308.8,56.8 -114.3,0.8 -216.6,-17 -307,-53 -91.4,-36.1 -170.9,-88 -237.4,-155.8 -66.6,-67 -117.5,-147.5 -152.5,-240.8 -34.9,-93.2 -53.2,-195.9 -53.8,-308.7 -0.7,-114.1 16.2,-218.1 50.6,-312.6 33.9,-94.7 83.7,-175.6 147.8,-243 64.5,-67.7 143.1,-120.1 235.5,-156.9 92.4,-36.5 194.7,-55.7 307.1,-56.6 113.5,-0.8 216.8,17.1 309.4,53 92.9,36.1 172.4,87.5 239,154.9 66.7,67.5 117.7,147.6 152.6,240.8 35,93.4 52.4,196.8 53,309.6zm-376.9 2.6c-1,-153.2 -35.2,-271.9 -102.8,-357 -68.5,-85 -158.9,-126.4 -272.4,-125.6 -73.3,0.3 -138,19.9 -193.6,57.8 -55.8,39 -98.5,95.1 -128.5,169.6 -29.9,74.7 -44.4,161.9 -43.7,260.9 0.4,98 16.2,183.5 46.3,256.8 29.9,73.2 73.3,128.9 128.7,167.5 55.4,38.7 121,57.5 197.1,56.9 113.1,-0.9 203.2,-44.6 270.6,-130.5 66.4,-85.9 99.2,-205.2 98.3,-356.2zm1705.4 536.5l-0.4 -36.6c-50.1,57.6 -99.1,105 -147.7,141.5 -49.3,36.1 -102.6,64.6 -159.2,84 -57.3,18.8 -119.6,28.9 -187.5,29.2 -90.3,0.9 -173.4,-17.8 -250.2,-55.7 -76.8,-36.8 -143.7,-90.6 -200,-161.4 -56.4,-69.8 -99.2,-152.5 -128.5,-247.4 -30,-94.7 -45.1,-198.5 -46,-309.6 -1.3,-234.7 55.2,-418.1 169.3,-550.6 113.3,-131.8 263.8,-198.2 450.7,-199.9 108.7,-0.7 200.7,17.1 275.1,54 74.6,36.9 146.7,93.3 217.6,170.2l-3.4 -554.2c-0.6,-77.4 14.2,-135.8 45.1,-175.1 31,-39.4 74.6,-60 131.5,-60.1 56.7,-0.7 99.9,17.3 131.4,53.2 31.2,35.7 46.9,89.2 47.2,159.4l10.3 1656.5c0.6,71.7 -16.1,125.4 -48.4,161.6 -32.5,36.1 -75.5,53.9 -127.6,54.5 -52,0.2 -94.2,-17.8 -127.9,-55.2 -33.9,-36.4 -51.1,-89 -51.4,-158.4zm-742.1 -545.7c0.4,101.3 17,188.2 49.4,259 31.6,71.6 75.8,125.6 131.3,161.2 55.3,35.7 115.3,53.8 179.9,53.1 66.4,-0.3 126.3,-18.3 181.1,-53.2 54.2,-34.9 97.7,-88.6 129.9,-159.8 32.4,-71.5 47.7,-159.5 47.1,-265.4 -0.4,-99.9 -17.1,-186 -50.4,-258.6 -33.2,-71.5 -78.1,-126.3 -133.5,-164.4 -55.4,-37.4 -116.1,-55.9 -182.4,-55.3 -68.7,0.3 -130.2,20 -184.3,59.4 -53.9,39.6 -95.8,96.7 -124.9,169.6 -29.1,72.8 -44,157.9 -43.2,254.4zm2449.6 536.3l-0.5 -47.9c-44.4,56.9 -91.2,104.6 -140.5,143.4 -49.2,39.5 -103.3,68.5 -161.4,88.1 -59.1,18.8 -126,28.8 -201.2,29.5 -90.9,0.3 -172.6,-17.9 -244.8,-55.2 -71.9,-37.1 -128,-88.2 -167.8,-154.6 -47.6,-79.2 -71.4,-193.4 -72.2,-342.7l-4.6 -744.1c-0.7,-75.2 15.8,-131.1 50,-169.3 34.1,-37.7 78.6,-56.4 134.6,-56.7 56.5,-0.3 102.3,17.8 137.7,54.9 34.6,37.5 52.5,93.9 53,168.3l3.8 601.5c0.5,86.9 8.1,159.7 23.6,218.5 14.9,58.9 41.3,105 79.8,138.3 37.9,33.4 89.8,49.6 155.4,49.4 63.2,-0.7 123,-20.3 178.5,-58.2 55.7,-38 96.1,-87 121.2,-147.9 21.6,-53.5 31.2,-169.6 29.9,-349.2l-2.7 -456.8c-0.4,-74.4 16.6,-131 51.7,-168.9 34.1,-38.1 79.4,-56.5 135.3,-57 55.8,-0.4 100.6,17.7 135.3,55.1 33.7,37.1 51,92.8 51.4,168.1l6.8 1087.8c0.3,71.6 -15.1,125.4 -47.8,161.6 -32.5,36.2 -73.8,53.9 -125.6,54.5 -51.3,0.6 -93.8,-17.9 -127.5,-55 -33.9,-36.5 -50.8,-88.4 -51.2,-155.6zm2071.3 -268c0.5,47.1 -12.7,96.4 -40.5,150.2 -27.6,54 -70.4,104.7 -126.7,152.7 -57.3,48.4 -128.8,87.2 -215.8,117.4 -86.8,30.3 -185.1,46.4 -294.4,46.8 -232.2,1.8 -413.3,-64.7 -544.3,-199.3 -131.1,-134 -197.7,-315.1 -199,-542.6 -0.9,-154.1 27.7,-290.1 86.7,-409.4 59.3,-118.5 145,-210.5 257.3,-276.1 112.1,-65.5 246,-98.1 403.3,-99.6 96.7,-0.3 186.2,13.1 267.8,40.7 80.8,27.2 149.9,63.7 206.8,108 57,44.8 100.4,92.4 130.2,142.6 29.9,51.1 45.3,98.6 45.8,142.7 0.1,44.9 -16.3,83.3 -49.6,114.6 -33.4,31.2 -74.2,47.8 -121.2,47.9 -31.2,0.2 -57.6,-7.4 -77.6,-24.3 -20.9,-15.6 -44.4,-41.1 -70,-76.8 -46.7,-69.1 -94.9,-121.4 -144.7,-156.4 -50.6,-33.9 -113.7,-51.1 -191.1,-50.4 -111.1,0.9 -200.4,44.6 -267.5,131.9 -67.3,87.8 -100.3,206.1 -99.4,356.2 0.5,71.1 9.8,135.7 27.6,194.7 17.1,59.3 43.1,109.3 76.1,150.7 33,41.7 73,72.8 120.3,94 47.4,21.1 98.4,31.8 154.5,31.6 74.9,-0.5 139.5,-18.7 192.9,-54.3 53.3,-34.4 100.8,-88.4 141.1,-160 22.9,-42.3 47.6,-76.1 73.7,-100.3 26,-23.4 59,-35.4 97.2,-35.9 46.3,-0.3 84.5,16.9 115.1,51.1 30,34.9 45.3,72.5 45.4,111.7zm342 -1031.9l40.7 -0.5 -1.3 -225.3c-0.6,-60.7 0.8,-108.4 3.7,-142.7 3.2,-34.6 11.5,-64 26.7,-88.7 15,-26 35.6,-46.8 63.7,-62.9 26.9,-16.1 57.3,-24.4 91.7,-24.6 47,-0.4 90.3,16.8 129.5,52.4 25.8,23.9 42,52.5 49.3,86.5 7.4,34.6 11,83.9 11.4,147l1.6 255.7 137.3 -1.1c53.4,-0.3 94.3,12.1 122.4,36.7 28.1,25.4 42,57.9 42.3,97.2 0.3,50.3 -19.5,86.3 -59.4,106.6 -39.9,20.1 -97.3,31.2 -171.7,31.3l-69.4 0.8 4.3 690.1c0.5,59.1 3.3,104.5 7.3,135.6 4.2,32.1 14.8,57.5 33.4,77.1 17.5,19.9 46.5,29.4 87.1,29.1 21.7,-0.3 51.8,-4.4 89.3,-12.7 37.5,-8.2 67.1,-12.5 87.9,-12.6 30.2,-0.2 57.3,11.5 82.5,36.2 23.9,24.6 36.1,54 36.4,90 0.4,59.8 -32.1,106.2 -98.1,138.6 -66.1,33.6 -160.2,50 -284.1,50.9 -117.4,0.9 -207,-18.3 -267.3,-56.8 -60.8,-39 -101,-93.8 -119.8,-163 -19.8,-69.4 -29.9,-163.1 -30.5,-279.4l-4.4 -720.4 -49.6 0.2c-53.6,0.6 -95.1,-12 -123.3,-38.3 -29,-25.4 -43.5,-57.8 -43.8,-97 -0.2,-39.1 14.7,-71.8 44.1,-97.9 29.7,-24.7 73.4,-37.9 130.1,-38.2z"/>
   <path class="fil6" d="M82075.2 27480.6c-1501.5,11 -1513.4,-2318.5 -14.7,-2329.4 1501.4,-10.8 1513.6,2318.5 14.7,2329.4zm2904.2 -7392.2c-536.4,9.1 -1073,14.8 -1609.4,10.8 -143.6,-1.1 -188.9,33.4 -187.3,185.3 14.1,1163.8 18.3,2327.4 25.7,3491.1l3.4 564.7c-104,-127.5 -175.1,-226.5 -268.2,-309.4 -861.3,-763.5 -2535.8,-767.6 -3402.9,330.4 -792.2,1002.5 -855.3,2570.5 -137.3,3631.3 772.1,1140.7 2312.3,1395.3 3390.9,560 163.7,-126.5 300.3,-280.6 450.2,-476.1 1.6,242.9 8,444.9 2.1,646.6 -3.2,105.7 17.9,150.8 138.7,148.2 552.4,-10.2 1104.9,-13.3 1657.5,-12.4 103,-0.2 135.6,-26.1 135.1,-133.7 -20.7,-2831.4 -38.5,-5663.4 -52.9,-8494.9 -0.8,-113.4 -34.4,-143.8 -145.7,-141.9z"/>
   <path class="fil6" d="M91922.7 27547.1c-1501.3,10.8 -1513.3,-2318.7 -14.4,-2329.6 1501.1,-10.7 1513.1,2318.6 14.4,2329.6zm3124.8 -1417.8c-4.6,-761.6 -11.4,-1523.3 -11.5,-2284.8 -0.2,-112.3 -31.4,-144.6 -144.6,-142.6 -547,9.3 -1094.5,15.3 -1641.6,10.8 -135,-0.9 -161.5,47.7 -155.1,166.9 9.8,176.8 4.8,353.6 6.1,565.3 -447.8,-584.7 -1017.9,-847.2 -1714.5,-858.5 -749.9,-12.5 -1385.7,240.4 -1888,803.9 -587.7,658.8 -771.2,1444.5 -692.6,2301.4 72.7,793.8 400.5,1460.9 1039.2,1955.3 823.9,638.1 2276.5,754.8 3144.7,-301.3 45.8,-55.6 91.1,-111.1 158.9,-193.9 1.7,248.8 8.5,461.2 2.1,673.7 -3.4,106.5 32.5,135.8 136.8,134.2 542,-8.6 1083.9,-14.9 1625.9,-10.6 134.8,1.4 154.5,-46.3 153.1,-164.8 -9.8,-884.9 -13.5,-1770.2 -19,-2655z"/>
   <path class="fil6" d="M74013.4 24412.8c347.6,-513.8 819.8,-770.2 1373.4,-841 884.1,-113.3 1675.2,87.6 2259.4,819.9 287.2,359.9 381,788.9 387.4,1235 14.4,1040.7 13.2,2081.4 24.7,3121.8 1.4,123.9 -27.3,164 -157.2,163.2 -552.9,-3.7 -1105.7,1.7 -1658.1,11.3 -113.1,2 -144,-30.3 -144.2,-142.7 -1.2,-895.9 -8.5,-1791.6 -15,-2687.4 -0.7,-107.2 -0.3,-215.8 -17.4,-320.9 -68.1,-416.1 -275.9,-723.4 -709.5,-814.9 -432.4,-91.2 -795,50 -1073.2,391.2 -182.8,224.3 -261.8,488.5 -259.9,777.4 5.9,885 8.5,1770.1 19.6,2655.1 1.6,128.3 -34.9,160.3 -159.8,159.5 -547.4,-2.6 -1094.8,1.9 -1642.1,11.7 -112.3,1.8 -143.9,-28.5 -144.4,-141.8 -6.8,-1651.9 -17.2,-3304.1 -30.4,-4956 -0.9,-108.3 23.1,-148.7 139.8,-148.6 558.3,1.8 1116.5,-3.5 1674.3,-11.2 95.9,-1.5 134,23 130.9,124.7 -6.3,182 0.1,364.3 1.6,593.6z"/>
   <path class="fil6" d="M70833.3 26351.7c5,820.2 7.2,1640.5 18.4,2461 1.5,121.9 -31.8,151.6 -151.1,151 -547.2,-2.6 -1094.3,0 -1641.3,12.5 -134,2.8 -156.4,-44.8 -156.6,-164.1 -7.1,-1640.5 -16.9,-3281.2 -31.3,-4921.7 -1.3,-129.2 37.3,-162.5 162.2,-161.7 541.5,2.2 1083.6,-1.4 1625.3,-12.2 125.2,-2.3 162,29.5 161.9,158 -0.6,825.9 7.3,1651.5 12.5,2477.1z"/>
   <path class="fil6" d="M88283 26210c5.3,820.6 8.2,1641.3 17.7,2462 1.4,117.1 -16.2,167 -152.5,165.9 -547.1,-5 -1094.4,1.2 -1641.6,10.7 -109.2,1.5 -146.7,-22.7 -147.3,-139.5 -6.2,-1651.9 -16.3,-3303.9 -30.8,-4956 -1.2,-124.5 37.8,-151.4 154.5,-150.9 541.6,1.9 1083.7,-1.5 1625.6,-12.3 125.5,-2.1 162.3,29.7 162.1,158.1 -0.7,820.9 7.3,1641.2 12.3,2462z"/>
   <path class="fil6" d="M68666.6 22073.3c-4.2,-619.1 474.8,-1107.9 1089.3,-1111 604,-3.4 1108.8,494.9 1112,1098.4 2.9,598.3 -486.9,1090.6 -1093.6,1098.7 -623.7,8.5 -1103.1,-461.7 -1107.7,-1086.1z"/>
   <path class="fil4" d="M87794.9 21674.8c-192.7,18.1 -1075.2,1053.7 -1143.6,1248.1 787.1,30.6 1349.1,-120.6 1727.4,-590.2 198.9,-246.9 278.2,-614.1 267.3,-971.9 -7.7,-253 -142.7,-753 -241.5,-945.5 -110.1,128.7 -90.8,225.6 -347.4,476.6 -429.3,419.6 -1168,335 -1563.7,1020.2 -145.9,252.6 -80.4,613.1 60.3,836.2 67.9,-63.7 113.8,-218.4 185.5,-303.7 169.3,-201.9 773.4,-894.1 1055.9,-769.9z"/>
  </g>
 </g>
</svg>
