<svg width="146" height="147" viewBox="0 0 146 147" fill="none" xmlns="http://www.w3.org/2000/svg">
<path fill-rule="evenodd" clip-rule="evenodd" d="M11.0347 71.772C15.3262 68.9278 25.9295 68.874 32.0677 69.3874L54.7129 71.2304C47.9776 74.3423 16.1668 71.9473 12.9151 82.4691C7.42459 94.1577 10.4014 111.378 31.9966 108.494C32.8434 108.382 36.2121 109.48 35.9214 112.473C31.7517 133.835 54.2396 145.645 67.1378 126.02C72.0893 118.487 70.8711 106.272 72.0133 87.0507C73.971 115.215 75.9313 135.493 59.8163 142.812C50.9605 147.948 34.8968 144.081 29.6772 135.177C26.4856 129.734 25.9774 123.143 25.0711 120.068C23.305 119.301 17.5348 119.188 12.1285 115.755C-1.74443 106.03 -5.33817 82.6271 11.0347 71.772Z" fill="#4D872B"/>
<path fill-rule="evenodd" clip-rule="evenodd" d="M11.1977 71.9797C15.5561 74.6306 26.2416 74.5299 32.4229 73.9517L54.683 71.2434C47.8566 68.373 16.3667 71.7402 12.9631 61.7552C7.28724 50.6876 10.08 34.227 31.8777 36.6655C32.7314 36.7614 36.1137 35.665 35.7847 32.8139C31.323 12.5079 53.8437 0.926212 67.0777 19.4493C72.1605 26.5618 71.0812 38.2249 72.4642 56.5381C74.0962 29.6564 75.8268 10.293 59.497 3.54338C50.5106 -1.22314 34.3702 2.69261 29.2156 11.2562C26.0658 16.4947 25.6321 22.7868 24.7566 25.7283C22.9857 26.4866 17.1724 26.6763 11.7661 30.0283C-2.09655 39.5007 -5.43379 61.8656 11.1977 71.9797Z" fill="#7CB940"/>
<path fill-rule="evenodd" clip-rule="evenodd" d="M134.2 72.1625C129.909 74.9625 119.307 75.0177 113.168 74.5127L90.5239 72.7021C97.2592 69.6378 129.069 71.9914 132.322 61.64C137.812 50.1322 134.837 33.1893 113.242 36.0272C112.395 36.1411 109.027 35.0612 109.319 32.1129C113.492 11.0941 91.004 -0.522079 78.1045 18.7876C73.1509 26.2037 73.6092 37.6211 72.4642 56.5382C70.51 28.8236 69.311 9.46567 85.4274 2.26207C94.2824 -2.7908 110.346 1.01455 115.565 9.77341C118.756 15.1285 119.263 21.6145 120.17 24.6388C121.937 25.3936 127.706 25.5054 133.111 28.8823C146.983 38.4505 150.574 61.4806 134.2 72.1625Z" fill="#FF9933"/>
<path fill-rule="evenodd" clip-rule="evenodd" d="M132.665 72.2108C128.338 69.428 117.736 69.528 111.606 70.1318L88.9844 72.3067C95.7587 75.3199 127.535 72.4592 130.917 82.932C136.551 94.5426 133.788 111.802 112.16 109.235C111.311 109.136 107.954 110.282 108.284 113.273C112.716 134.572 90.377 146.706 77.2374 127.274C72.1935 119.813 73.3857 106.343 72.0082 87.1362C70.3987 115.33 68.5629 136.876 84.7655 143.958C93.6828 148.962 109.699 144.859 114.807 135.882C117.931 130.392 118.358 123.794 119.227 120.708C120.985 119.913 126.751 119.717 132.115 116.204C145.866 106.277 149.171 82.8243 132.665 72.2108Z" fill="#0D6E41"/>
</svg>
