<?xml version="1.0" encoding="UTF-8"?>
<!DOCTYPE svg PUBLIC "-//W3C//DTD SVG 1.1//EN" "http://www.w3.org/Graphics/SVG/1.1/DTD/svg11.dtd">
<!-- Creator: CorelDRAW 2021 (64-Bit) -->
<svg xmlns="http://www.w3.org/2000/svg" xml:space="preserve" width="40mm" height="40mm" version="1.1" style="shape-rendering:geometricPrecision; text-rendering:geometricPrecision; image-rendering:optimizeQuality; fill-rule:evenodd; clip-rule:evenodd"
viewBox="0 0 40000 40000"
 xmlns:xlink="http://www.w3.org/1999/xlink"
 xmlns:xodm="http://www.corel.com/coreldraw/odm/2003">
 <defs>
  <style type="text/css">
   <![CDATA[
    .fil0 {fill:none}
    .fil1 {fill:#1D1D1E;fill-rule:nonzero}
   ]]>
  </style>
 </defs>
 <g id="Layer_x0020_1">
  <metadata id="CorelCorpID_0Corel-Layer"/>
  <rect class="fil0" x="-66" y="66" width="40000" height="40000"/>
  <g id="_2381051520688">
   <path class="fil1" d="M35927.1 17286.2c45.4,-32 71.7,-56.4 0,0l0 0z"/>
   <path class="fil1" d="M7032.3 13197.8c521.2,0 1042.3,0 1563.4,0 142.4,0 251.8,-137.3 297.6,-260.4 30.6,-81.8 55.8,-296.4 -88.2,-296.4 -521.2,0 -1042.3,0 -1563.5,0 -142.3,0 -251.7,137.3 -297.5,260.4 -30.5,81.8 -55.8,296.4 88.2,296.4z"/>
   <path class="fil1" d="M10139.6 10559.4c475.5,0 951.1,0 1426.6,0 142.4,0 251.8,-137.2 297.6,-260.3 30.5,-81.7 55.8,-296.3 -88.2,-296.3 -475.5,0 -951.1,0 -1426.6,0 -142.4,0 -251.7,137.2 -297.6,260.3 -30.5,81.7 -55.8,296.3 88.2,296.3z"/>
   <path class="fil1" d="M13960.2 13367.2c475.6,0 951.1,0 1426.7,0 142.3,0 251.7,-137.3 297.6,-260.5 30.5,-81.8 55.7,-296.3 -88.3,-296.3 -475.5,0 -951,0 -1426.6,0 -142.3,0 -251.7,137.3 -297.6,260.4 -30.5,81.8 -55.8,296.4 88.2,296.4z"/>
   <path class="fil1" d="M19080.5 11139.3c475.5,0 950.9,0 1426.6,0 142.4,0 251.7,-137.5 297.5,-260.6 30.5,-81.8 55.9,-296.3 -88.1,-296.3 -475.7,0 -951.2,0 -1426.6,0 -142.4,0 -251.9,137.5 -297.7,260.6 -30.5,81.7 -55.6,296.3 88.3,296.3z"/>
   <path class="fil1" d="M26545.8 10904.7c475.7,0 951.1,0 1426.6,0 142.4,0 251.8,-137.1 297.6,-260.2 30.5,-82.1 55.9,-296.7 -88.3,-296.7 -475.4,0 -950.9,0 -1426.6,0 -142.1,0 -251.6,137.5 -297.4,260.6 -30.5,81.8 -55.9,296.3 88.1,296.3z"/>
   <path class="fil1" d="M31001.6 13197.8c475.5,0 951.3,0 1426.7,0 142.2,0 251.6,-137.3 297.7,-260.4 30.3,-81.8 55.4,-296.4 -88.4,-296.4 -475.5,0 -951.3,0 -1426.8,0 -142.1,0 -251.6,137.3 -297.6,260.4 -30.4,81.8 -55.7,296.4 88.4,296.4z"/>
   <path class="fil1" d="M18924.1 15790.5c475.5,0 951.2,0 1426.6,0 142.4,0 251.7,-137.4 297.7,-260.5 30.5,-81.8 55.6,-296.3 -88.3,-296.3 -475.5,0 -951.1,0 -1426.6,0 -142.4,0 -251.7,137.3 -297.7,260.4 -30.5,81.8 -55.7,296.4 88.3,296.4z"/>
   <path class="fil1" d="M25334.1 14344.3c475.7,0 951.1,0 1426.8,0 142.2,0 251.6,-137.3 297.5,-260.4 30.5,-81.9 55.8,-296.4 -88.1,-296.4 -475.7,0 -951.2,0 -1426.9,0 -142.1,0 -251.6,137.3 -297.5,260.4 -30.4,81.9 -55.8,296.4 88.2,296.4z"/>
   <path class="fil1" d="M14673.6 8794c475.5,0 951.1,0 1426.6,0 142.3,0 251.7,-137.2 297.6,-260.3 30.5,-81.7 55.7,-296.3 -88.3,-296.3 -475.5,0 -951,0 -1426.6,0 -142.3,0 -251.7,137.2 -297.6,260.3 -30.5,81.7 -55.7,296.3 88.3,296.3z"/>
   <path class="fil1" d="M22021.6 8090.6c475.5,0 951.2,0 1426.7,0 142.4,0 251.8,-137.5 297.6,-260.6 30.5,-81.7 55.7,-296.3 -88.3,-296.3 -475.4,0 -951.1,0 -1426.6,0 -142.4,0 -251.6,137.5 -297.5,260.6 -30.7,81.8 -55.8,296.3 88.1,296.3z"/>
   <path class="fil1" d="M11067.6 16314.9c-30.5,81.8 -55.7,296.4 88.2,296.4 475.6,0 951.1,0 1426.7,0 142.3,0 251.7,-137.4 297.6,-260.5 30.5,-81.8 55.7,-296.3 -88.2,-296.3 -475.6,0 -951.1,0 -1426.7,0 -142.3,0 -251.7,137.3 -297.6,260.4z"/>
   <path class="fil1" d="M36494.3 23206.4c-31.3,-5.8 -66.4,-0.9 -101.7,10.9 -1720.7,190.6 -3432.4,464.1 -5125.1,830.1 -2539.3,548.7 -5032.6,1306.4 -7431.7,2305.5 -1305.8,543.7 -2579.3,1163.1 -3808.6,1862.8 -2212.6,-1263 -4568.4,-2264 -6993.5,-3041.6 -2436.1,-781 -4937.5,-1347 -7467.7,-1721.4 -633.2,-93.9 -1268.1,-175.4 -1904.3,-245.4 -17.7,-4.7 -35.8,-6.5 -53.9,-5.8 -566.5,-61.9 -1133.9,-114.6 -1702,-158.2 433.4,-490.8 913,-936.5 1435.6,-1335 131.1,88.2 269,166 410.5,233.7 562.5,269.2 1172.6,440.3 1799.7,414.5 790.8,-32.3 1547.3,-272.2 2311,-457.5 750.8,-182.2 1490.2,-279.2 2254.2,-114.4 1481,319.8 2720.6,1303 4190.7,1669.4 3102.5,772.9 5953.6,-1628.2 9054.2,-1152.9 1607.5,246.5 3153.8,1106.8 4816,777.1 775.6,-153.7 1466.9,-558.9 2206.6,-819 367.4,-129.2 748.4,-223.8 1139.5,-220.2 397.7,3.5 789.4,82.9 1173.5,180 767.1,193.8 1535.5,472.1 2338.6,408 586.9,-46.7 1139.8,-281.7 1596.2,-646.6 412.8,336.5 796.1,704.7 1149.5,1100.9 -429.4,36.8 -858.5,78.4 -1287.3,125.1zm-159.5 2535.7c-30.7,278.8 -85.7,509.5 -172.8,746.2 -93.8,255.5 -174.5,415.6 -341.7,666.8 -5.3,8.3 -8.6,13.4 -10.6,16.5 -4.4,6 -9.7,12.9 -16.1,21.6 -18.6,25.1 -37.3,50.3 -56.3,75.2 -38.4,49.8 -77.8,98.6 -118.5,146.4 -98.1,115.4 -139.1,158.6 -251.6,261.2 -205.8,187.1 -415.7,336.9 -659.6,468.3 -555.6,300.2 -1182.8,497.1 -1778.8,700.2 -2606.8,888.9 -5341.3,1375.5 -8081.5,1607.3 -2891.1,244.5 -5816.8,257.9 -8711.6,66.3 -2777.4,-183.8 -5551.6,-598.7 -8217.6,-1414.4 -637.4,-195.1 -1267.3,-416 -1887.6,-660.1 -540.1,-212.5 -1056.2,-453.7 -1482.1,-858.4 -793.6,-754 -1219.4,-1860 -1072.5,-2950.2 26.4,-196 60.9,-399.4 119.6,-591.8 1661.6,190.8 3314.2,460.5 4948.5,816.7 2515.6,548.5 4988.2,1302 7360.7,2305.3 1184.9,500.8 2343.9,1063.7 3465.5,1694 126.6,71.2 306.2,228.5 458.6,192.5 153.3,-36.1 311.2,-164.9 448.1,-241.4 283.4,-158.5 569.5,-312.9 857.7,-462.8 567.5,-295.5 1143.8,-574.5 1727.1,-837.9 2336.7,-1054.9 4787.4,-1851.4 7279.7,-2445.4 1954.6,-466.2 3939.9,-809.2 5937.5,-1035.1 238.6,515.3 316.7,1166.1 255.9,1713zm166.5 4120.3c4.4,25.6 8,51.2 11.7,76.8 1.3,10.9 7.7,61.1 8,63.2 7.4,65.8 13.4,131.7 18,197.8 10,145.7 13.4,292.1 10,438.3 -12.3,546 -125.1,1068.3 -349.6,1595.9 -14.7,34.3 -30.4,68.1 -45.1,102.3 -2.6,6.5 -5,11.8 -7,16.5 -2,3.8 -4,7.6 -6.3,12.2 -34,67.7 -68.1,134.9 -104.8,201.2 -68.1,123.7 -141.5,244.5 -220.5,361.7 -8.4,11.4 -39.1,55.2 -44.1,61.9 -23.3,31.8 -47,63.4 -71,94.6 -48.4,63.4 -98.5,125.2 -150.2,185.9 -52.4,61.9 -107.1,121.5 -161.8,181.4 -8,8.9 -14,15.8 -18.7,20.9 -5,4.7 -11.3,10.9 -19.7,18.9 -39.4,38.9 -79.1,77.7 -119.4,115.7 -1013,947.6 -2440.4,1443.3 -3788.7,1777.3 -1595.6,395.1 -3241.9,563.1 -4879.9,655.9 -1915.8,108.8 -3836.2,113.4 -5754.5,114.5 -1944.1,1.1 -3889.5,10.7 -5832.9,-53.6 -1719.4,-56.9 -3445.9,-167.7 -5141.4,-471.4 -1428.5,-255.9 -2870.4,-651.2 -4129.3,-1393.3 -1151.5,-678.8 -2022.1,-1751.4 -2363.1,-3048.3 -80.1,-304.6 -122.1,-554.5 -143.9,-843.9 -10.7,-141.5 -15.5,-283.7 -14.6,-425.6 0.4,-70.1 2.3,-140.2 5.6,-210.3 1.7,-34.9 3.6,-69.6 6,-104.6 1.4,-21.3 3,-42.7 4.8,-64 0.3,-3.2 0.6,-6.5 1,-10.3 14.1,-136.4 33.1,-271.9 58,-406.5 12.3,-66.3 25.9,-132.4 40.9,-198.2 7.4,-32.7 15.1,-65.2 23.3,-97.7 3.3,-13.4 23.4,-87 24.7,-93.4 33.5,-112.9 70.9,-224.3 113,-334.2 23,-60.1 47.3,-119.5 72.9,-178.5 12.7,-29.1 26.2,-57.8 39,-87 -53,120 6.5,-12 18.4,-35.3 31.6,-61.9 64.9,-122.9 99.8,-183.1 231.6,285 503.9,537.7 803.7,748 530.1,371.5 1163,580.5 1767,798.7 2727.1,986.1 5594.6,1522.1 8477.5,1779.3 3020.4,269.6 6081.8,283.7 9106.4,72.3 2904.6,-202.9 5805.1,-653.5 8579.2,-1556.3 671.3,-218.5 1339.6,-457.9 1988.6,-736.3 487.8,-209.3 927.9,-521.3 1301.3,-897.7 22,23.8 43.7,48 64.7,72.7 78.7,91.9 150.8,189.4 216.5,290.4 63.4,96.8 120.8,197.3 172.9,300.3 44.7,87.9 86.7,183.8 134.8,314.2 90.7,246.3 156.1,501.7 198.8,760.7zm-33706.6 -10976.1c2.8,-231.9 91.8,-538.7 186.4,-793.6 59.3,-159.6 125,-313.3 197.7,-463.6 51.7,47.2 105.4,92.9 161.8,136.8 82.3,64 164.6,128.3 249.1,189.5 273.2,198 568.5,361.7 875.6,500.6 560.1,253.4 1153.5,434.5 1748.2,586.5 948.1,242 1916.4,403.1 2885.9,531.5 1492.2,197.8 2995,313.5 4497.8,392.7 2148.7,113.4 4301.5,148.6 6453,144.8 2107.8,-3.5 4216.8,-46 6321.3,-168 1471.6,-85.2 2943.5,-206.4 4403.9,-409.8 937.9,-130.6 1874.5,-293.9 2790.4,-537.5 577.9,-153.7 1149.8,-341.8 1691.6,-596.3 320.7,-150.9 621,-332.8 906.3,-542.9 14.7,-11.1 29.3,-22.5 44.3,-33.7 507.9,367.3 885.2,906.3 1022.1,1522.2 65,291.7 59,585.1 -6.1,874.8 -51.7,231 -188.5,511.5 -316.3,682.4 -340.6,455 -846.1,793.6 -1439.4,896.2 -738.4,127.7 -1500.1,-129.5 -2204.8,-319.7 -748.1,-202.3 -1492.8,-336.9 -2260.9,-154.9 -738.7,175.1 -1402.4,560.7 -2117.1,805.2 -727.8,249 -1455.3,256.3 -2206.7,112.8 -787,-150.4 -1543.6,-422.1 -2321,-610.5 -750.3,-181.8 -1493.8,-242.3 -2262.3,-168.2 -734,70.8 -1452,248.5 -2159.9,449.2 -1389,394.1 -2803.5,926.7 -4269,877.3 -733,-24.7 -1421.7,-220.3 -2091.4,-510 -662.8,-286.7 -1297.1,-635 -1962.9,-914.6 -655.5,-275.5 -1353.4,-489 -2070.6,-484.1 -779.1,5.5 -1530.9,223.8 -2279.8,414 -696.2,176.6 -1417.2,339.7 -2136,203.8 -463.8,-87.5 -941.8,-288.1 -1334.4,-549.8 -401.4,-267.4 -706.8,-650.8 -857.9,-1111.1 -100.7,-307 -142.8,-629.2 -138.9,-952zm167.4 -5764.9c385.4,-1805.6 1326.7,-3395.5 2589.6,-4733.5 1348.3,-1428.4 3082.2,-2484.8 4920.2,-3173.8 2011.5,-753.7 4158.2,-1115.1 6299.6,-1204.8 1250.6,-52.1 2507.3,-31.7 3758.6,-28.4 1481.7,4.4 2955.1,20.4 4427.1,215.6 2124.1,282.2 4217.3,871.1 6103.5,1902.8 1691.6,925.6 3175.8,2209.2 4272.5,3801.1 526.2,764.1 957.6,1591.4 1259.2,2469.6 296.6,862.2 495.5,1783.1 465.5,2698.6 -13,398.4 -79.4,798.1 -212.9,1147.4 -62.1,162.8 -133.8,307.5 -228.6,443.9 -77.4,110.8 -173.8,215.8 -289.6,317.1 -55,26.6 -108.4,71.3 -155.8,126.5 -61,47.1 -121.4,94.3 -183.5,139.9 -23.4,17.3 -48.4,33.4 -71.4,51.5 4,-3.2 7.3,-5.9 11,-8.7 -5.7,4.1 -11.7,8.2 -17.7,12.2 -60,40.6 -121.4,79.6 -183.8,117.1 -156.8,94.9 -319.7,180.1 -485.5,257.9 -97.4,45.6 -196.5,87.2 -295.6,129.4 -9.7,3.9 -19.4,7.9 -29.4,11.8 -29,11.4 -58,22.7 -87.4,33.7 -64.1,24.5 -128.1,48.1 -192.5,70.8 -686.4,243.9 -1398.1,414.3 -2112.1,554.7 -1131.4,222.7 -2277.9,367.1 -3425,477.9 -1689.7,163.5 -3387.1,247.4 -5083.4,297.2 -2259.6,66.3 -4521.9,72.3 -6781.8,26.7 -1818.4,-36.5 -3637.3,-109.7 -5450.2,-259.4 -1240,-102.3 -2479.2,-238.5 -3705.2,-453.2 -438,-76.6 -874.3,-163.8 -1306.8,-267 -180.5,-43.2 -360.4,-89 -539.3,-138.4 -82.9,-23.1 -165.6,-46.7 -248,-71.2 -37.9,-11.3 -75.6,-22.9 -113.3,-34.5 -2.3,-0.6 -4,-1.1 -5.8,-1.5 -17.1,-5.6 -34.1,-10.9 -51.2,-16.5 -449,-143.9 -892.7,-315.2 -1306.4,-543.3 -232.2,-128 -449.1,-277.2 -658.5,-439.5 -1196.7,-927.7 -1174.6,-2578 -886.1,-3929.7zm35913.2 9956.1c-479.8,-635.4 -1029.3,-1213.4 -1636.9,-1726.7 347.7,-459.7 591.2,-1002.8 654.3,-1577 80.4,-736.7 -122.5,-1473.6 -569.2,-2066.1 -133.5,-177 -288.3,-339 -457.8,-483.1 1111.1,-1330.9 932.6,-3408.7 468.8,-4979.5 -547.2,-1853.6 -1637.6,-3524.9 -3027.3,-4857.5 -1515.5,-1453.1 -3360,-2491.5 -5346.3,-3155.1 -1977.5,-661 -4068,-988.3 -6150.5,-1041.4 -1328.1,-33.7 -2658.4,-23.6 -3986.8,-17 -1624.4,8.4 -3238.3,71.8 -4843.5,348.7 -2157.5,372.7 -4281.3,1088.7 -6141.8,2257.2 -1689.8,1061.7 -3146.2,2501.1 -4180,4211.5 -518.4,857.8 -917.5,1782.4 -1184,2748.2 -252,913.4 -397.1,1890.3 -272.1,2835.7 78.2,591.8 261.1,1155 596.7,1625 -324.3,590.3 -588.8,1255.6 -636.4,1919.5 -45.4,633.6 103,1329.6 450.5,1865.8 77.9,120.1 167.5,231.6 265.8,335.1 -667.2,545.7 -1267.7,1172.7 -1787.1,1861.1 -93.6,123.9 -307.9,612.3 10.7,633.9 646.7,43.8 1292.8,99.4 1937.6,166.4 -382,1098.2 -286.7,2360.9 274.6,3378.7 15,27 30.5,53.9 46.1,80.6 -596.2,910.4 -861.5,2033.3 -809.8,3114.6 64.9,1356.1 629.2,2667.5 1612.7,3610.2 1095.6,1050.1 2571.1,1607.7 4017.9,1981.3 1659.2,428.5 3377.8,602.7 5084.8,700.6 1985.2,113.7 3975.2,115.2 5962.9,115.9 2013.9,0.7 4029.3,10.9 6041.9,-67.6 1772.1,-69 3555.1,-199.6 5295.8,-553.6 1494.1,-303.9 3033.9,-778.9 4288.2,-1672.3 1171.4,-834.3 1996.6,-2128.1 2248.5,-3545.1 199.2,-1120.9 63.4,-2379.3 -583.9,-3341.4 -78.8,-117.2 -166.2,-225.6 -260.9,-328.2 611.2,-924.4 840.5,-2052.6 656.6,-3156.7 -19.7,-118.8 -44.4,-235.4 -74.4,-350.2 231.2,-22.7 462.8,-44.2 694.4,-63.8 304.2,-25.8 608.9,-48.7 913.5,-69.4 275.6,-18.7 625.6,-474.2 426.4,-738.3z"/>
  </g>
 </g>
</svg>
