<?xml version="1.0" encoding="UTF-8"?>
<!DOCTYPE svg PUBLIC "-//W3C//DTD SVG 1.1//EN" "http://www.w3.org/Graphics/SVG/1.1/DTD/svg11.dtd">
<!-- Creator: CorelDRAW 2021 (64-Bit) -->
<svg xmlns="http://www.w3.org/2000/svg" xml:space="preserve" width="500mm" height="180mm" version="1.1" style="shape-rendering:geometricPrecision; text-rendering:geometricPrecision; image-rendering:optimizeQuality; fill-rule:evenodd; clip-rule:evenodd"
viewBox="0 0 499958.6 179985.1"
 xmlns:xlink="http://www.w3.org/1999/xlink"
 xmlns:xodm="http://www.corel.com/coreldraw/odm/2003">
 <defs>
  <style type="text/css">
   <![CDATA[
    .str0 {stroke:#2B2A29;stroke-width:349.9;stroke-linejoin:bevel;stroke-miterlimit:22.9256}
    .str1 {stroke:#009846;stroke-width:349.9;stroke-linejoin:bevel;stroke-miterlimit:22.9256}
    .fil0 {fill:none}
    .fil2 {fill:none;fill-rule:nonzero}
    .fil3 {fill:#FEFEFE;fill-rule:nonzero}
    .fil1 {fill:#2B2A29;fill-rule:nonzero}
   ]]>
  </style>
 </defs>
 <g id="Layer_x0020_1">
  <metadata id="CorelCorpID_0Corel-Layer"/>
  <rect class="fil0" width="499958.6" height="179985.1"/>
  <path class="fil1" d="M24716.4 59237.4c146212.6,-43977.7 302116.9,-44077.5 448385.7,-286.8 1586.2,474.9 2487.8,2145.5 2013.7,3732.2l-25757.4 86236.8 -7464.4 4027.4c-126645,-37320.9 -261407.7,-37024.3 -387887.3,853.6 -1585.6,474.9 -3261.1,-429.1 -3734.8,-2015.1l-24608.1 -82388.6 -947.5 -10159.5z"/>
  <path class="fil2 str0" d="M25215.2 64587.2c144609.7,-43390.3 298675.6,-43872.5 443507.6,-1434l-25038 83827.9 -1790.8 966.3c-126645,-37320.8 -261407.7,-37024.3 -387887.3,853.6l-4242.3 1285.4 -24100.5 -80689.5 -448.7 -4809.7z"/>
  <path class="fil3 str1" d="M445106.1 142222.7l-3212 1733c-126644.9,-37320.8 -261407.8,-37032.3 -387887.4,845.6l-5359.7 1544 -21734 -72766.3c0.9,-0.4 2,-0.6 3.1,-1 143245.4,-42626 295688.3,-43192.2 439189.9,-1687.4 2.2,0.6 4.3,1.2 6.5,1.9l-21006.5 70330.2z"/>
 </g>
</svg>
