<?xml version="1.0" encoding="UTF-8"?>
<!DOCTYPE svg PUBLIC "-//W3C//DTD SVG 1.1//EN" "http://www.w3.org/Graphics/SVG/1.1/DTD/svg11.dtd">
<!-- Creator: CorelDRAW 2021 (64-Bit) -->
<svg xmlns="http://www.w3.org/2000/svg" xml:space="preserve" width="230mm" height="410mm" version="1.1" style="shape-rendering:geometricPrecision; text-rendering:geometricPrecision; image-rendering:optimizeQuality; fill-rule:evenodd; clip-rule:evenodd"
viewBox="0 0 230000 410000"
 xmlns:xlink="http://www.w3.org/1999/xlink"
 xmlns:xodm="http://www.corel.com/coreldraw/odm/2003">
 <defs>
  <style type="text/css">
   <![CDATA[
    .str0 {stroke:#2B2A29;stroke-width:200;stroke-miterlimit:22.9256}
    .fil0 {fill:none}
    .fil1 {fill:#FEFEFE}
   ]]>
  </style>
 </defs>
 <g id="Layer_x0020_1">
  <metadata id="CorelCorpID_0Corel-Layer"/>
  <rect class="fil0" x="-62" y="62.7" width="230000" height="410000"/>
  <polygon class="fil1 str0" points="58470.8,48067.4 171470.8,48067.4 172536.1,44211.9 181970.7,10067.5 47970.8,10067.5 57405.4,44211.9 "/>
  <path class="fil1 str0" d="M171470.8 48067.4l0 113999.9 37495.8 12357.6c2437.8,803.3 5113,388.3 7192.7,-1116.1 2079.8,-1504.3 3311.4,-3915.3 3311.4,-6482l0 -135619.7c0,-1636.5 -873.1,-3148.8 -2290.3,-3967 -1417.3,-818.3 -3163.4,-818.3 -4580.6,0 -1417.3,818.2 -2290.3,2330.5 -2290.3,3967l0 4060.4 -38838.7 12799.9z"/>
  <path class="fil1 str0" d="M172536.1 44211.9l23260.2 -7665.8c3042.2,-1002.7 5262.4,-3630.4 5743.1,-6797.2 480.7,-3167 -859.7,-6335.3 -3467.4,-8195.5l-16101.3 -11485.9 -9434.6 34144.4z"/>
  <path class="fil1 str0" d="M57405.4 44211.9l-9434.6 -34144.4 -16101.3 11485.9c-2607.7,1860.2 -3948.2,5028.5 -3467.5,8195.5 480.7,3166.8 2701,5794.5 5743.2,6797.2l23260.2 7665.8z"/>
  <path class="fil1 str0" d="M58470.8 48067.4l-38838.8 -12799.9 0 -4060.4c0,-1636.5 -873.1,-3148.8 -2290.3,-3967 -1417.3,-818.3 -3163.4,-818.3 -4580.6,0 -1417.3,818.2 -2290.3,2330.5 -2290.3,3967l0 135619.7c0,2566.7 1231.6,4977.7 3311.3,6481.9 2079.7,1504.5 4754.9,1919.5 7192.7,1116.2l37496 -12357.6 0 -113999.9z"/>
  <polygon class="fil1 str0" points="58470.8,48067.4 58470.8,162067.3 171470.8,162067.3 171470.8,48067.4 "/>
  <polygon class="fil1 str0" points="171470.8,162067.3 58470.8,162067.3 57405.4,165922.8 47970.8,200067.4 83648.5,200067.4 86984.2,203419.8 142955.4,203419.8 146291.1,200067.4 181970.7,200067.4 172536.1,165922.8 "/>
  <path class="fil1 str0" d="M47970.8 200067.4l9434.6 -34144.6 -23260.2 7665.8c-3042.2,1002.7 -5262.5,3630.4 -5743.2,6797.4 -480.7,3166.8 859.8,6335.1 3467.5,8195.3l16101.3 11486.1z"/>
  <path class="fil1 str0" d="M172536.1 165922.8l9434.6 34144.6 16101.3 -11486.1c2607.7,-1860.2 3948.1,-5028.5 3467.4,-8195.3 -480.7,-3167 -2700.9,-5794.7 -5743.1,-6797.4l-23260.2 -7665.8z"/>
  <path class="fil1 str0" d="M181970.7 200067.4l-9434.6 34144.4 23260.2 -7665.8c3042.2,-1002.7 5262.4,-3630.4 5743.1,-6797.2 480.7,-3167 -859.7,-6335.3 -3467.4,-8195.5l-16101.3 -11485.9z"/>
  <polygon class="fil1 str0" points="172536.1,234211.8 181970.7,200067.4 146291.1,200067.4 142955.4,203419.8 86984.2,203419.8 83648.5,200067.4 47970.8,200067.4 57405.4,234211.8 58470.8,238067.3 171470.8,238067.3 "/>
  <path class="fil1 str0" d="M57405.4 234211.8l-9434.6 -34144.4 -16101.3 11485.9c-2607.7,1860.2 -3948.2,5028.5 -3467.5,8195.5 480.7,3166.8 2701,5794.5 5743.2,6797.2l23260.2 7665.8z"/>
  <polygon class="fil1 str0" points="58470.8,238067.3 20470.8,227067.3 20470.8,363067.2 58470.8,352067.2 "/>
  <path class="fil1 str0" d="M58470.8 238067.3l0 113999.9c47378.4,0 65621.6,0 113000,0l0 -113999.9 -113000 0z"/>
  <polygon class="fil1 str0" points="171470.8,238067.3 171470.8,352067.2 209470.7,363067.2 209470.7,227067.3 "/>
  <path class="fil1 str0" d="M195796.3 363588.5l-23260.2 -7665.8 9434.6 34144.6 16101.3 -11486.1c2607.7,-1860.2 3948.1,-5028.5 3467.4,-8195.3 -480.7,-3167 -2700.9,-5794.7 -5743.1,-6797.4z"/>
  <path class="fil1 str0" d="M181970.7 390067.3l-9434.6 -34144.6 -1065.3 -3855.5c-53454.8,0 -59545.2,0 -113000,0l-1065.4 3855.5 -9434.6 34144.6 133999.9 0z"/>
  <path class="fil1 str0" d="M47970.8 390067.3l9434.6 -34144.6 -23260.2 7665.8c-3042.2,1002.7 -5262.5,3630.4 -5743.2,6797.4 -480.7,3166.8 859.8,6335.1 3467.5,8195.3l16101.3 11486.1z"/>
  <path class="fil1 str0" d="M181970.7 390067.3l-133999.9 0 -4000 0c-2761.4,0 -5000,2238.5 -5000,4999.9 0,2761.5 2238.5,5000 5000,5000l141999.9 0c1786.3,0 3436.9,-953 4330.1,-2500 893.2,-1547 893.2,-3452.9 0,-4999.9 -893.2,-1547 -2543.8,-2500 -4330.1,-2500l-4000 0z"/>
 </g>
</svg>
