<?xml version="1.0" encoding="UTF-8"?>
<!DOCTYPE svg PUBLIC "-//W3C//DTD SVG 1.1//EN" "http://www.w3.org/Graphics/SVG/1.1/DTD/svg11.dtd">
<!-- Creator: CorelDRAW 2021 (64-Bit) -->
<svg xmlns="http://www.w3.org/2000/svg" xml:space="preserve" width="230mm" height="410mm" version="1.1" style="shape-rendering:geometricPrecision; text-rendering:geometricPrecision; image-rendering:optimizeQuality; fill-rule:evenodd; clip-rule:evenodd"
viewBox="0 0 229876.1 409779.1"
 xmlns:xlink="http://www.w3.org/1999/xlink"
 xmlns:xodm="http://www.corel.com/coreldraw/odm/2003">
 <defs>
  <style type="text/css">
   <![CDATA[
    .str0 {stroke:#2B2A29;stroke-width:199.9;stroke-miterlimit:22.9256}
    .fil0 {fill:none}
    .fil1 {fill:#FEFEFE}
    .fil2 {fill:#2B2A29}
   ]]>
  </style>
 </defs>
 <g id="Layer_x0020_1">
  <metadata id="CorelCorpID_0Corel-Layer"/>
  <rect class="fil0" width="229876.1" height="409779.1"/>
  <polygon class="fil1 str0" points="58501.3,47978.8 171440.4,47978.8 172505.1,44125.4 181934.6,9999.4 48006.9,9999.4 57436.4,44125.4 "/>
  <path class="fil1 str0" d="M171440.4 47978.8l0 113938.5 37475.6 12350.9c2436.5,802.9 5110.2,388.1 7188.8,-1115.5 2078.7,-1503.5 3309.6,-3913.2 3309.6,-6478.5l0 -135546.6c0,-1635.6 -872.6,-3147.1 -2289.1,-3964.9 -1416.5,-817.9 -3161.7,-817.9 -4578.1,0 -1416.5,817.8 -2289.1,2329.2 -2289.1,3964.9l0 4058.2 -38817.8 12793z"/>
  <path class="fil2 str0" d="M172505.1 44125.4l23247.7 -7661.7c3040.6,-1002.2 5259.6,-3628.4 5740,-6793.5 480.4,-3165.3 -859.2,-6331.9 -3465.5,-8191.1l-16092.6 -11479.7 -9429.5 34126z"/>
  <path class="fil2 str0" d="M57436.4 44125.4l-9429.5 -34126 -16092.6 11479.7c-2606.3,1859.2 -3946.1,5025.8 -3465.6,8191.1 480.4,3165.1 2699.5,5791.4 5740.1,6793.5l23247.7 7661.7z"/>
  <path class="fil1 str0" d="M58501.3 47978.8l-38817.9 -12793 0 -4058.2c0,-1635.6 -872.6,-3147.1 -2289.1,-3964.9 -1416.5,-817.9 -3161.7,-817.9 -4578.1,0 -1416.5,817.8 -2289.1,2329.2 -2289.1,3964.9l0 135546.6c0,2565.3 1230.9,4975 3309.5,6478.4 2078.6,1503.7 4752.3,1918.5 7188.8,1115.6l37475.8 -12350.9 0 -113938.5z"/>
  <polygon class="fil1 str0" points="58501.3,47978.8 58501.3,161917.3 171440.4,161917.3 171440.4,47978.8 "/>
  <polygon class="fil1 str0" points="171440.4,161917.3 58501.3,161917.3 57436.4,165770.7 48006.9,199896.9 83665.4,199896.9 86999.3,203247.5 142940.3,203247.5 146274.2,199896.9 181934.6,199896.9 172505.1,165770.7 "/>
  <path class="fil2 str0" d="M48006.9 199896.9l9429.5 -34126.2 -23247.7 7661.7c-3040.6,1002.2 -5259.7,3628.4 -5740.1,6793.7 -480.4,3165.1 859.3,6331.7 3465.6,8190.9l16092.6 11479.9z"/>
  <path class="fil2 str0" d="M172505.1 165770.7l9429.5 34126.2 16092.6 -11479.9c2606.3,-1859.2 3946,-5025.8 3465.5,-8190.9 -480.4,-3165.3 -2699.4,-5791.6 -5740,-6793.7l-23247.7 -7661.7z"/>
  <path class="fil2 str0" d="M181934.6 199896.9l-9429.5 34126 23247.7 -7661.7c3040.6,-1002.2 5259.6,-3628.4 5740,-6793.5 480.4,-3165.3 -859.2,-6331.9 -3465.5,-8191.1l-16092.6 -11479.7z"/>
  <polygon class="fil1 str0" points="172505.1,234022.9 181934.6,199896.9 146274.2,199896.9 142940.3,203247.5 86999.3,203247.5 83665.4,199896.9 48006.9,199896.9 57436.4,234022.9 58501.3,237876.4 171440.4,237876.4 "/>
  <path class="fil2 str0" d="M57436.4 234022.9l-9429.5 -34126 -16092.6 11479.7c-2606.3,1859.2 -3946.1,5025.8 -3465.6,8191.1 480.4,3165.1 2699.5,5791.4 5740.1,6793.5l23247.7 7661.7z"/>
  <polygon class="fil1 str0" points="58501.3,237876.4 20521.7,226882.3 20521.7,362808.9 58501.3,351814.8 "/>
  <path class="fil1 str0" d="M58501.3 237876.4l0 113938.5c47352.9,0 65586.2,0 112939.1,0l0 -113938.5 -112939.1 0z"/>
  <polygon class="fil1 str0" points="171440.4,237876.4 171440.4,351814.8 209419.8,362808.9 209419.8,226882.3 "/>
  <path class="fil2 str0" d="M195752.8 363329.9l-23247.7 -7661.7 9429.5 34126.2 16092.6 -11479.9c2606.3,-1859.2 3946,-5025.8 3465.5,-8190.9 -480.4,-3165.3 -2699.4,-5791.6 -5740,-6793.7z"/>
  <path class="fil1 str0" d="M181934.6 389794.4l-9429.5 -34126.2 -1064.7 -3853.4c-53426,0 -59513.1,0 -112939.1,0l-1064.8 3853.4 -9429.5 34126.2 133927.7 0z"/>
  <path class="fil2 str0" d="M48006.9 389794.4l9429.5 -34126.2 -23247.7 7661.7c-3040.6,1002.2 -5259.7,3628.4 -5740.1,6793.7 -480.4,3165.1 859.3,6331.7 3465.6,8190.9l16092.6 11479.9z"/>
  <path class="fil1 str0" d="M181934.6 389794.4l-133927.7 0 -3997.8 0c-2759.9,0 -4997.3,2237.3 -4997.3,4997.2 0,2760 2237.3,4997.3 4997.3,4997.3l141923.4 0c1785.3,0 3435,-952.5 4327.8,-2498.7 892.7,-1546.2 892.7,-3451 0,-4997.2 -892.7,-1546.2 -2542.4,-2498.7 -4327.8,-2498.7l-3997.8 0z"/>
 </g>
</svg>
