<?xml version="1.0" encoding="UTF-8"?>
<!DOCTYPE svg PUBLIC "-//W3C//DTD SVG 1.1//EN" "http://www.w3.org/Graphics/SVG/1.1/DTD/svg11.dtd">
<!-- Creator: CorelDRAW 2021 (64-Bit) -->
<svg xmlns="http://www.w3.org/2000/svg" xml:space="preserve" width="200mm" height="260mm" version="1.1" style="shape-rendering:geometricPrecision; text-rendering:geometricPrecision; image-rendering:optimizeQuality; fill-rule:evenodd; clip-rule:evenodd"
viewBox="0 0 199848.1 259802.6"
 xmlns:xlink="http://www.w3.org/1999/xlink"
 xmlns:xodm="http://www.corel.com/coreldraw/odm/2003">
 <defs>
  <style type="text/css">
   <![CDATA[
    .str0 {stroke:#2B2A29;stroke-width:199.8;stroke-miterlimit:22.9256}
    .str1 {stroke:#2B2A29;stroke-width:76.1;stroke-miterlimit:22.9256}
    .fil0 {fill:none}
    .fil1 {fill:#FEFEFE}
    .fil2 {fill:#2B2A29}
   ]]>
  </style>
 </defs>
 <g id="Layer_x0020_1">
  <metadata id="CorelCorpID_0Corel-Layer"/>
  <rect class="fil0" width="199848.1" height="259802.6"/>
  <polygon class="fil1 str0" points="99923.9,204933.9 149888.6,204933.9 149888.6,204762.5 149888.6,129910.4 149888.6,55040 99923.9,55040 49959.6,55040 49959.6,129910.4 49959.6,204933.9 "/>
  <path class="fil1 str0" d="M49959.6 204933.9l0 -75023.5 0 -74870.4 -44891.8 -9992.7c11372.4,83386.2 579.8,165580 22.2,169716.3l76.5 141.1 44540.6 -9914.7 252.4 -56.2z"/>
  <path class="fil1 str0" d="M149888.6 55040l0 74870.4 0 74852.1 216.7 219.6 44591.9 9926 64.3 -118.5c-513.8,-3803 -11378.6,-86173.8 18.7,-169742.3l-44891.6 9992.7z"/>
  <path class="fil1 str1" d="M40960.5 9918.7c38734.7,6297.6 78004.2,6234.5 117801.2,-98.4l-8814.1 45219.7 -100051.8 0c-2978.4,-15040.5 -5956.9,-30080.8 -8935.3,-45121.3z"/>
  <path class="fil1 str1" d="M40960.5 249880.3c38734.7,-6297.6 78004.2,-6234.5 117801.2,98.4l-8814.1 -45219.7 -100051.8 0c-2978.4,15040.5 -5956.9,30080.8 -8935.3,45121.3z"/>
  <g id="_2895704142080">
   <polygon class="fil2 str1" points="158821.7,9836 179282.8,20481.3 181551,23015.1 149910.4,54974.5 "/>
   <polygon class="fil2 str1" points="184122.1,25352.6 181614.6,22959.2 149990.5,54935.9 194769.2,45006.1 "/>
  </g>
  <g id="_2895704148224">
   <polygon class="fil2 str1" points="158821.7,249978.7 179282.8,239333.4 181551,236799.6 149910.4,204840.2 "/>
   <polygon class="fil2 str1" points="184122.1,234462.1 181614.6,236855.6 149990.5,204878.8 194769.2,214808.6 "/>
  </g>
  <g id="_2895704153744">
   <polygon class="fil2 str1" points="40964.7,9877.2 20419.2,20677.3 18277.5,22943.7 49894.3,55011.1 "/>
   <polygon class="fil2 str1" points="15762.7,25352.6 18270.2,22959.2 49894.3,54935.9 5115.6,45006.1 "/>
  </g>
  <g id="_2895704154848">
   <polygon class="fil2 str1" points="40964.7,249978.7 20419.2,239178.6 18277.5,236912.2 49894.3,204844.8 "/>
   <polygon class="fil2 str1" points="15762.7,234503.3 18270.2,236896.8 49894.3,204920 5115.6,214849.8 "/>
  </g>
 </g>
</svg>
