<?xml version="1.0" encoding="UTF-8"?>
<!DOCTYPE svg PUBLIC "-//W3C//DTD SVG 1.1//EN" "http://www.w3.org/Graphics/SVG/1.1/DTD/svg11.dtd">
<!-- Creator: CorelDRAW 2021 (64-Bit) -->
<svg xmlns="http://www.w3.org/2000/svg" xml:space="preserve" width="300mm" height="300mm" version="1.1" style="shape-rendering:geometricPrecision; text-rendering:geometricPrecision; image-rendering:optimizeQuality; fill-rule:evenodd; clip-rule:evenodd"
viewBox="0 0 299941.4 299941.4"
 xmlns:xlink="http://www.w3.org/1999/xlink"
 xmlns:xodm="http://www.corel.com/coreldraw/odm/2003">
 <defs>
  <style type="text/css">
   <![CDATA[
    .str1 {stroke:#2B2A29;stroke-width:200;stroke-miterlimit:22.9256}
    .str0 {stroke:#2B2A29;stroke-width:200;stroke-miterlimit:22.9256}
    .fil0 {fill:none}
    .fil1 {fill:#FEFEFE}
   ]]>
  </style>
 </defs>
 <g id="Layer_x0020_1">
  <metadata id="CorelCorpID_0Corel-Layer"/>
  <rect class="fil0" width="299941.4" height="299941.4"/>
  <g id="_2482877292016">
   <polygon class="fil1 str0" points="197937.7,166891.7 171942.8,166891.7 169943.2,169891.1 130021.4,169891.1 128021.8,166891.7 102026.9,166891.7 100018.2,169904.8 74989.7,169904.8 74989.7,201949.4 82558.1,205260.8 74989.7,209856.3 74989.7,230914.6 82980.1,234410.2 74989.7,237906.1 74989.8,269951.2 224951.9,269951.2 224952,237906.1 216961.5,234410.2 224952,230914.6 224952,209856.3 217383.5,205260.8 224952,201949.4 224952,169904.8 199946.5,169904.8 "/>
   <polygon class="fil1 str1" points="171942.8,166891.7 197937.7,166891.7 199946.5,169904.8 224952,169904.8 217461,132450 82480.6,132450 74989.7,169904.8 100018.2,169904.8 102026.9,166891.7 128021.8,166891.7 130021.4,169891.1 169943.2,169891.1 "/>
   <polygon class="fil1 str1" points="217461,132450 224952,169904.8 244250.4,159815 "/>
   <polygon class="fil1 str1" points="217461,132450 244250.4,159815 254915.7,139941 "/>
   <polygon class="fil1 str1" points="217484,47469.4 254908.7,39979.9 254915.7,39978.5 244250.4,20104.6 "/>
   <polygon class="fil1 str1" points="217484,47469.4 244250.4,20104.6 224952,10014.7 "/>
   <polygon class="fil1 str1" points="217484,47469.4 224952,10014.7 203894.4,10014.7 199899.2,19003.6 195904.3,10014.8 173953.3,10014.8 169957.8,19004.1 165963,10014.6 134001.5,10014.6 130006.2,19003.9 126011.2,10014.4 104037.5,10014.4 100042.5,19003.6 96047.2,10014.7 74989.7,10014.7 82457.6,47506 "/>
   <polygon class="fil1 str1" points="82457.6,47506 74989.7,10014.7 55691.2,20104.6 "/>
   <polygon class="fil1 str1" points="82457.6,47506 55691.2,20104.6 45025.9,39978.5 "/>
   <polygon class="fil1 str1" points="82480.6,132450 45029.3,139940.3 45025.9,139941 55691.2,159815 "/>
   <polygon class="fil1 str1" points="82480.6,132450 55691.2,159815 74989.7,169904.8 "/>
   <polygon class="fil1 str1" points="82480.6,132450 217461,132450 217484,47469.4 82457.6,47506 "/>
   <g>
    <polygon class="fil1 str1" points="217461,132450 254915.7,139941 254908.7,39979.9 217484,47469.4 "/>
    <path class="fil1 str1" d="M254908.7 39979.9l7 99961.1 5844.1 -501.1c7757.5,-665.2 13715.7,-7156.2 13715.7,-14942.2l0 -69075.9c0,-7786.1 -5958.3,-14277.1 -13716,-14942.3l-5843.8 -501 -7 1.4z"/>
   </g>
   <g>
    <polygon class="fil1 str1" points="82480.4,132450 45025.7,139941 45032.7,39979.9 82457.4,47469.4 "/>
    <path class="fil1 str1" d="M45032.7 39979.9l-7 99961.1 -5844.1 -501.1c-7757.5,-665.2 -13715.7,-7156.2 -13715.7,-14942.2l0 -69075.9c0,-7786.1 5958.3,-14277.1 13716,-14942.3l5843.8 -501 7 1.4z"/>
   </g>
   <path class="fil1 str1" d="M224951.9 269951.2l-149962.1 0 5443.1 18539.6c250.1,851.5 1031.2,1436.3 1918.6,1436.3l135238.7 0c887.3,0 1668.6,-584.8 1918.6,-1436.3l5443 -18539.6z"/>
  </g>
 </g>
</svg>
