<?xml version="1.0" encoding="UTF-8"?>
<!DOCTYPE svg PUBLIC "-//W3C//DTD SVG 1.1//EN" "http://www.w3.org/Graphics/SVG/1.1/DTD/svg11.dtd">
<!-- Creator: CorelDRAW 2021 (64-Bit) -->
<svg xmlns="http://www.w3.org/2000/svg" xml:space="preserve" width="200mm" height="110mm" version="1.1" style="shape-rendering:geometricPrecision; text-rendering:geometricPrecision; image-rendering:optimizeQuality; fill-rule:evenodd; clip-rule:evenodd"
viewBox="0 0 200000 110000"
 xmlns:xlink="http://www.w3.org/1999/xlink"
 xmlns:xodm="http://www.corel.com/coreldraw/odm/2003">
 <defs>
  <style type="text/css">
   <![CDATA[
    .str0 {stroke:#2B2A29;stroke-width:200;stroke-miterlimit:22.9256;stroke-opacity:0.149020}
    .str1 {stroke:black;stroke-width:76.2;stroke-miterlimit:22.9256}
    .fil0 {fill:none}
    .fil3 {fill:none;fill-rule:nonzero}
    .fil1 {fill:none;fill-rule:nonzero}
    .fil2 {fill:#2B2A29;fill-rule:nonzero}
   ]]>
  </style>
   <clipPath id="id0" style="clip-rule:nonzero">
    <path d="M36852.8 102172.4l-207.5 -115.2 -26716 -78775.8 333.5 -113 26716.1 78775.8 -126.1 228.2zm0 0l-156 37.1 -51.5 -152.3 207.5 115.2zm63066.9 -7717.7l0 352.6 0 -0.6 -2034.4 7.4 -2030 22.4 -2026.5 37.4 -2022.6 52.1 -2019.2 66.9 -2015.2 81.7 -2011.4 96.3 -2007.8 111.1 -2004.5 125.3 -1999.6 140.1 -1995.8 154.3 -1991.8 168.7 -1987.5 182.4 -1983.5 197.4 -1979.3 211.6 -1975.7 225.6 -1970.5 239.6 -1966.6 253.3 -1961.9 267.7 -1957.4 281.6 -1953 295 -1948.4 309.2 -1944.5 323.4 -1939.3 336.8 -1934.3 349.6 -1929.7 364.1 -1924.9 377.5 -1920.9 390.5 -1915.1 404.2 -1910.3 417.1 -1905.2 431.1 -1900.1 444.3 -81.5 -343.2 1903 -444.4 1908 -430.8 1913 -418.5 1918 -404.5 1922.1 -391.8 1927.6 -377.5 1932.6 -364 1937.1 -350.9 1942 -336.8 1945.9 -323.4 1951.1 -309.2 1955.8 -296.3 1960.2 -281.8 1964.7 -267.8 1969.1 -254.5 1973.4 -239.7 1977.1 -225.6 1982.1 -211.6 1986.2 -197.2 1990.2 -183.9 1994.5 -168.7 1998.7 -154.3 2002.4 -140.1 2005.9 -125.3 2010.3 -111.1 2014.3 -96.3 2018.1 -81.6 2021.9 -67 2025.4 -52.1 2029.1 -37.4 2032.9 -22.4 2035.7 -7.4 0 -0.6zm62905.6 7481.1l333.7 113 -207.5 115.3 -1899.3 -443.8 -1904.1 -430.6 -1909.2 -416.7 -1914.1 -403.9 -1919.9 -390 -1923.8 -376.9 -1928.6 -363.7 -1933.4 -349.4 -1938.2 -336.6 -1943.6 -322.6 -1947.3 -309 -1951.8 -294.5 -1956.4 -281.6 -1960.8 -267.5 -1965.3 -252.7 -1969.7 -239.5 -1974.5 -225.5 -1978.2 -211.2 -1982.3 -197.1 -1986.5 -182.1 -1990.5 -168.7 -1994.6 -154.2 -1998.7 -139.7 -2003.3 -125.2 -2006.6 -110.7 -2010.3 -96.2 -2014 -81.6 -2018 -67 -2021.6 -52.1 -2025.2 -37.3 -2028.9 -22.4 -2033.1 -6.8 0 -352.6 2034.5 8 2031.6 22.4 2028 37.3 2024.3 52.1 2020.7 67 2016.9 81.6 2013.1 96.2 2009.3 110.7 2004.6 125.2 2001.5 139.7 1997.4 154.3 1993.4 168.6 1989.1 183.4 1985 197.1 1981 211.5 1975.9 225.2 1972.5 239.5 1967.9 254.4 1963.6 267.4 1959.1 281.3 1954.7 296 1950.2 309 1944.8 322.7 1940.8 336.5 1936.3 350.6 1931.3 363.8 1926.7 376.9 1921.1 391.3 1916.8 403.9 1912.1 418 1906.9 430.6 1902 443.8 -207.5 115.1zm333.7 113l-51.7 152.2 -155.8 -36.9 207.5 -115.3zm26650.7 -78986.8l108.9 222.5 -26759.6 78764.3 -333.7 -113 26759.7 -78764.3 224.7 -109.5zm0 0l165 57.5 -56.1 165 -108.9 -222.5zm-89890 -14852.2l0 -352.8 0 0 2948.8 16.4 2942 47.1 2934.4 78 2925.8 108.9 2918.6 139.7 2910.3 170.5 2902.2 200.8 2893.2 231 2885.1 261.9 2876.5 291 2866.7 321 2858.6 351.3 2849.2 379.9 2839.2 409.4 2830.6 439.1 2820.7 467.4 2810.3 496.6 2800.9 524.9 2790.9 554 2780 581.7 2770 610.4 2759 637.8 2748.7 666.4 2738.1 693.8 2726.3 720.8 2715.5 748.7 2703.8 775.9 2692.8 803.1 2680.5 828.8 2669.4 856.7 2656.7 882.6 2645.2 909.4 -115.7 332.1 -2641.2 -907.9 -2653.9 -881.6 -2665.2 -855.1 -2677.8 -828.8 -2688.7 -801.8 -2700.9 -774.5 -2711.6 -747.1 -2723.5 -720.9 -2733.7 -692.4 -2744.8 -665.1 -2756.1 -637.6 -2766 -609 -2777.1 -581.7 -2786.8 -552.7 -2796.9 -524.9 -2807.4 -495.5 -2816.8 -467.4 -2826.2 -437.8 -2836.4 -409.3 -2845.3 -380 -2854.4 -349.6 -2864 -321 -2872.2 -291 -2881.1 -260.6 -2890.3 -231 -2898 -200.8 -2906.4 -170.5 -2914.4 -139.7 -2923.1 -108.9 -2930.2 -78 -2938 -47.1 -2945.9 -15zm-89656.9 14958.6l-333.5 113 108.9 -222.5 2645.1 -909.2 2656.4 -882.7 2669.1 -856.3 2680.3 -828.8 2692.6 -802.8 2703.4 -775.8 2715.4 -748.4 2726 -720.7 2737.8 -693.7 2748.5 -666.3 2758.6 -637.6 2769.9 -610.2 2779.8 -581.7 2790.5 -553.9 2800.7 -524.5 2810.1 -496.9 2820.3 -467.1 2830.2 -439 2839.1 -409.4 2848.9 -379.8 2858.3 -351.3 2866.6 -320.6 2876.2 -291.3 2884.8 -261.7 2892.7 -230.9 2902 -200.9 2910 -170.3 2918.3 -139.7 2925.5 -108.9 2934.1 -78 2941.7 -47.1 2948.6 -16.4 0 352.8 -2945.7 15 -2937.8 47.1 -2929.8 78 -2922.7 108.9 -2914.2 139.7 -2906 170.4 -2897.8 200.8 -2889.9 231 -2880.9 260.2 -2872 291.2 -2863.7 320.8 -2854 349.7 -2845.1 380.1 -2836.2 409 -2825.9 437.8 -2816.5 467.2 -2807.1 495.5 -2796.7 524.6 -2786.4 552.6 -2777 581.6 -2765.6 609 -2755.9 637.5 -2744.5 664.7 -2733.6 692.4 -2723.1 720.5 -2711.5 747.3 -2700.6 774.3 -2688.5 801.3 -2677.4 828.9 -2665.1 854.9 -2653.7 881.4 -2640.9 907.8 108.9 -222.6zm-333.5 113l-56 -165 164.9 -57.5 -108.9 222.5z"/>
   </clipPath>
   <clipPath id="id1">
    <path d="M36852.8 102172.4l-207.5 -115.2 -26716 -78775.8 333.5 -113 26716.1 78775.8 -126.1 228.2zm0 0l-156 37.1 -51.5 -152.3 207.5 115.2zm63066.9 -7717.7l0 352.6 0 -0.6 -2034.4 7.4 -2030 22.4 -2026.5 37.4 -2022.6 52.1 -2019.2 66.9 -2015.2 81.7 -2011.4 96.3 -2007.8 111.1 -2004.5 125.3 -1999.6 140.1 -1995.8 154.3 -1991.8 168.7 -1987.5 182.4 -1983.5 197.4 -1979.3 211.6 -1975.7 225.6 -1970.5 239.6 -1966.6 253.3 -1961.9 267.7 -1957.4 281.6 -1953 295 -1948.4 309.2 -1944.5 323.4 -1939.3 336.8 -1934.3 349.6 -1929.7 364.1 -1924.9 377.5 -1920.9 390.5 -1915.1 404.2 -1910.3 417.1 -1905.2 431.1 -1900.1 444.3 -81.5 -343.2 1903 -444.4 1908 -430.8 1913 -418.5 1918 -404.5 1922.1 -391.8 1927.6 -377.5 1932.6 -364 1937.1 -350.9 1942 -336.8 1945.9 -323.4 1951.1 -309.2 1955.8 -296.3 1960.2 -281.8 1964.7 -267.8 1969.1 -254.5 1973.4 -239.7 1977.1 -225.6 1982.1 -211.6 1986.2 -197.2 1990.2 -183.9 1994.5 -168.7 1998.7 -154.3 2002.4 -140.1 2005.9 -125.3 2010.3 -111.1 2014.3 -96.3 2018.1 -81.6 2021.9 -67 2025.4 -52.1 2029.1 -37.4 2032.9 -22.4 2035.7 -7.4 0 -0.6zm62905.6 7481.1l333.7 113 -207.5 115.3 -1899.3 -443.8 -1904.1 -430.6 -1909.2 -416.7 -1914.1 -403.9 -1919.9 -390 -1923.8 -376.9 -1928.6 -363.7 -1933.4 -349.4 -1938.2 -336.6 -1943.6 -322.6 -1947.3 -309 -1951.8 -294.5 -1956.4 -281.6 -1960.8 -267.5 -1965.3 -252.7 -1969.7 -239.5 -1974.5 -225.5 -1978.2 -211.2 -1982.3 -197.1 -1986.5 -182.1 -1990.5 -168.7 -1994.6 -154.2 -1998.7 -139.7 -2003.3 -125.2 -2006.6 -110.7 -2010.3 -96.2 -2014 -81.6 -2018 -67 -2021.6 -52.1 -2025.2 -37.3 -2028.9 -22.4 -2033.1 -6.8 0 -352.6 2034.5 8 2031.6 22.4 2028 37.3 2024.3 52.1 2020.7 67 2016.9 81.6 2013.1 96.2 2009.3 110.7 2004.6 125.2 2001.5 139.7 1997.4 154.3 1993.4 168.6 1989.1 183.4 1985 197.1 1981 211.5 1975.9 225.2 1972.5 239.5 1967.9 254.4 1963.6 267.4 1959.1 281.3 1954.7 296 1950.2 309 1944.8 322.7 1940.8 336.5 1936.3 350.6 1931.3 363.8 1926.7 376.9 1921.1 391.3 1916.8 403.9 1912.1 418 1906.9 430.6 1902 443.8 -207.5 115.1zm333.7 113l-51.7 152.2 -155.8 -36.9 207.5 -115.3zm26650.7 -78986.8l108.9 222.5 -26759.6 78764.3 -333.7 -113 26759.7 -78764.3 224.7 -109.5zm0 0l165 57.5 -56.1 165 -108.9 -222.5zm-89890 -14852.2l0 -352.8 0 0 2948.8 16.4 2942 47.1 2934.4 78 2925.8 108.9 2918.6 139.7 2910.3 170.5 2902.2 200.8 2893.2 231 2885.1 261.9 2876.5 291 2866.7 321 2858.6 351.3 2849.2 379.9 2839.2 409.4 2830.6 439.1 2820.7 467.4 2810.3 496.6 2800.9 524.9 2790.9 554 2780 581.7 2770 610.4 2759 637.8 2748.7 666.4 2738.1 693.8 2726.3 720.8 2715.5 748.7 2703.8 775.9 2692.8 803.1 2680.5 828.8 2669.4 856.7 2656.7 882.6 2645.2 909.4 -115.7 332.1 -2641.2 -907.9 -2653.9 -881.6 -2665.2 -855.1 -2677.8 -828.8 -2688.7 -801.8 -2700.9 -774.5 -2711.6 -747.1 -2723.5 -720.9 -2733.7 -692.4 -2744.8 -665.1 -2756.1 -637.6 -2766 -609 -2777.1 -581.7 -2786.8 -552.7 -2796.9 -524.9 -2807.4 -495.5 -2816.8 -467.4 -2826.2 -437.8 -2836.4 -409.3 -2845.3 -380 -2854.4 -349.6 -2864 -321 -2872.2 -291 -2881.1 -260.6 -2890.3 -231 -2898 -200.8 -2906.4 -170.5 -2914.4 -139.7 -2923.1 -108.9 -2930.2 -78 -2938 -47.1 -2945.9 -15zm-89656.9 14958.6l-333.5 113 108.9 -222.5 2645.1 -909.2 2656.4 -882.7 2669.1 -856.3 2680.3 -828.8 2692.6 -802.8 2703.4 -775.8 2715.4 -748.4 2726 -720.7 2737.8 -693.7 2748.5 -666.3 2758.6 -637.6 2769.9 -610.2 2779.8 -581.7 2790.5 -553.9 2800.7 -524.5 2810.1 -496.9 2820.3 -467.1 2830.2 -439 2839.1 -409.4 2848.9 -379.8 2858.3 -351.3 2866.6 -320.6 2876.2 -291.3 2884.8 -261.7 2892.7 -230.9 2902 -200.9 2910 -170.3 2918.3 -139.7 2925.5 -108.9 2934.1 -78 2941.7 -47.1 2948.6 -16.4 0 352.8 -2945.7 15 -2937.8 47.1 -2929.8 78 -2922.7 108.9 -2914.2 139.7 -2906 170.4 -2897.8 200.8 -2889.9 231 -2880.9 260.2 -2872 291.2 -2863.7 320.8 -2854 349.7 -2845.1 380.1 -2836.2 409 -2825.9 437.8 -2816.5 467.2 -2807.1 495.5 -2796.7 524.6 -2786.4 552.6 -2777 581.6 -2765.6 609 -2755.9 637.5 -2744.5 664.7 -2733.6 692.4 -2723.1 720.5 -2711.5 747.3 -2700.6 774.3 -2688.5 801.3 -2677.4 828.9 -2665.1 854.9 -2653.7 881.4 -2640.9 907.8 108.9 -222.6zm-333.5 113l-56 -165 164.9 -57.5 -108.9 222.5z"/>
   </clipPath>
 </defs>
 <g id="Layer_x0020_1">
  <metadata id="CorelCorpID_0Corel-Layer"/>
  <rect class="fil0" x="-76" y="33.3" width="200000" height="110000"/>
  <path class="fil1 str0" d="M35254.7 97206.3l-23733.5 -69278.4c56480.2,-18852.3 111974.1,-20626.6 171091.5,-1844.8l-24047.9 69901.8c-41192.1,-7926 -82309.7,-8890.6 -123310.1,1221.4z"/>
  <path class="fil2" d="M36852.8 102172.4l-207.5 -115.2 -26716 -78775.8 333.5 -113 26716.1 78775.8 -126.1 228.2zm0 0l-156 37.1 -51.5 -152.3 207.5 115.2zm63066.9 -7717.7l0 352.6 0 -0.6 -2034.4 7.4 -2030 22.4 -2026.5 37.4 -2022.6 52.1 -2019.2 66.9 -2015.2 81.7 -2011.4 96.3 -2007.8 111.1 -2004.5 125.3 -1999.6 140.1 -1995.8 154.3 -1991.8 168.7 -1987.5 182.4 -1983.5 197.4 -1979.3 211.6 -1975.7 225.6 -1970.5 239.6 -1966.6 253.3 -1961.9 267.7 -1957.4 281.6 -1953 295 -1948.4 309.2 -1944.5 323.4 -1939.3 336.8 -1934.3 349.6 -1929.7 364.1 -1924.9 377.5 -1920.9 390.5 -1915.1 404.2 -1910.3 417.1 -1905.2 431.1 -1900.1 444.3 -81.5 -343.2 1903 -444.4 1908 -430.8 1913 -418.5 1918 -404.5 1922.1 -391.8 1927.6 -377.5 1932.6 -364 1937.1 -350.9 1942 -336.8 1945.9 -323.4 1951.1 -309.2 1955.8 -296.3 1960.2 -281.8 1964.7 -267.8 1969.1 -254.5 1973.4 -239.7 1977.1 -225.6 1982.1 -211.6 1986.2 -197.2 1990.2 -183.9 1994.5 -168.7 1998.7 -154.3 2002.4 -140.1 2005.9 -125.3 2010.3 -111.1 2014.3 -96.3 2018.1 -81.6 2021.9 -67 2025.4 -52.1 2029.1 -37.4 2032.9 -22.4 2035.7 -7.4 0 -0.6zm62905.6 7481.1l333.7 113 -207.5 115.3 -1899.3 -443.8 -1904.1 -430.6 -1909.2 -416.7 -1914.1 -403.9 -1919.9 -390 -1923.8 -376.9 -1928.6 -363.7 -1933.4 -349.4 -1938.2 -336.6 -1943.6 -322.6 -1947.3 -309 -1951.8 -294.5 -1956.4 -281.6 -1960.8 -267.5 -1965.3 -252.7 -1969.7 -239.5 -1974.5 -225.5 -1978.2 -211.2 -1982.3 -197.1 -1986.5 -182.1 -1990.5 -168.7 -1994.6 -154.2 -1998.7 -139.7 -2003.3 -125.2 -2006.6 -110.7 -2010.3 -96.2 -2014 -81.6 -2018 -67 -2021.6 -52.1 -2025.2 -37.3 -2028.9 -22.4 -2033.1 -6.8 0 -352.6 2034.5 8 2031.6 22.4 2028 37.3 2024.3 52.1 2020.7 67 2016.9 81.6 2013.1 96.2 2009.3 110.7 2004.6 125.2 2001.5 139.7 1997.4 154.3 1993.4 168.6 1989.1 183.4 1985 197.1 1981 211.5 1975.9 225.2 1972.5 239.5 1967.9 254.4 1963.6 267.4 1959.1 281.3 1954.7 296 1950.2 309 1944.8 322.7 1940.8 336.5 1936.3 350.6 1931.3 363.8 1926.7 376.9 1921.1 391.3 1916.8 403.9 1912.1 418 1906.9 430.6 1902 443.8 -207.5 115.1zm333.7 113l-51.7 152.2 -155.8 -36.9 207.5 -115.3zm26650.7 -78986.8l108.9 222.5 -26759.6 78764.3 -333.7 -113 26759.7 -78764.3 224.7 -109.5zm0 0l165 57.5 -56.1 165 -108.9 -222.5zm-89890 -14852.2l0 -352.8 0 0 2948.8 16.4 2942 47.1 2934.4 78 2925.8 108.9 2918.6 139.7 2910.3 170.5 2902.2 200.8 2893.2 231 2885.1 261.9 2876.5 291 2866.7 321 2858.6 351.3 2849.2 379.9 2839.2 409.4 2830.6 439.1 2820.7 467.4 2810.3 496.6 2800.9 524.9 2790.9 554 2780 581.7 2770 610.4 2759 637.8 2748.7 666.4 2738.1 693.8 2726.3 720.8 2715.5 748.7 2703.8 775.9 2692.8 803.1 2680.5 828.8 2669.4 856.7 2656.7 882.6 2645.2 909.4 -115.7 332.1 -2641.2 -907.9 -2653.9 -881.6 -2665.2 -855.1 -2677.8 -828.8 -2688.7 -801.8 -2700.9 -774.5 -2711.6 -747.1 -2723.5 -720.9 -2733.7 -692.4 -2744.8 -665.1 -2756.1 -637.6 -2766 -609 -2777.1 -581.7 -2786.8 -552.7 -2796.9 -524.9 -2807.4 -495.5 -2816.8 -467.4 -2826.2 -437.8 -2836.4 -409.3 -2845.3 -380 -2854.4 -349.6 -2864 -321 -2872.2 -291 -2881.1 -260.6 -2890.3 -231 -2898 -200.8 -2906.4 -170.5 -2914.4 -139.7 -2923.1 -108.9 -2930.2 -78 -2938 -47.1 -2945.9 -15zm-89656.9 14958.6l-333.5 113 108.9 -222.5 2645.1 -909.2 2656.4 -882.7 2669.1 -856.3 2680.3 -828.8 2692.6 -802.8 2703.4 -775.8 2715.4 -748.4 2726 -720.7 2737.8 -693.7 2748.5 -666.3 2758.6 -637.6 2769.9 -610.2 2779.8 -581.7 2790.5 -553.9 2800.7 -524.5 2810.1 -496.9 2820.3 -467.1 2830.2 -439 2839.1 -409.4 2848.9 -379.8 2858.3 -351.3 2866.6 -320.6 2876.2 -291.3 2884.8 -261.7 2892.7 -230.9 2902 -200.9 2910 -170.3 2918.3 -139.7 2925.5 -108.9 2934.1 -78 2941.7 -47.1 2948.6 -16.4 0 352.8 -2945.7 15 -2937.8 47.1 -2929.8 78 -2922.7 108.9 -2914.2 139.7 -2906 170.4 -2897.8 200.8 -2889.9 231 -2880.9 260.2 -2872 291.2 -2863.7 320.8 -2854 349.7 -2845.1 380.1 -2836.2 409 -2825.9 437.8 -2816.5 467.2 -2807.1 495.5 -2796.7 524.6 -2786.4 552.6 -2777 581.6 -2765.6 609 -2755.9 637.5 -2744.5 664.7 -2733.6 692.4 -2723.1 720.5 -2711.5 747.3 -2700.6 774.3 -2688.5 801.3 -2677.4 828.9 -2665.1 854.9 -2653.7 881.4 -2640.9 907.8 108.9 -222.6zm-333.5 113l-56 -165 164.9 -57.5 -108.9 222.5z"/>
  <g style="clip-path:url(#id0)">
   <g id="_2030760786848">
   </g>
  </g>
  <path id="_1" class="fil3" d="M36852.8 102172.4l-207.5 -115.2 -26716 -78775.8 333.5 -113 26716.1 78775.8 -126.1 228.2zm0 0l-156 37.1 -51.5 -152.3 207.5 115.2zm63066.9 -7717.7l0 352.6 0 -0.6 -2034.4 7.4 -2030 22.4 -2026.5 37.4 -2022.6 52.1 -2019.2 66.9 -2015.2 81.7 -2011.4 96.3 -2007.8 111.1 -2004.5 125.3 -1999.6 140.1 -1995.8 154.3 -1991.8 168.7 -1987.5 182.4 -1983.5 197.4 -1979.3 211.6 -1975.7 225.6 -1970.5 239.6 -1966.6 253.3 -1961.9 267.7 -1957.4 281.6 -1953 295 -1948.4 309.2 -1944.5 323.4 -1939.3 336.8 -1934.3 349.6 -1929.7 364.1 -1924.9 377.5 -1920.9 390.5 -1915.1 404.2 -1910.3 417.1 -1905.2 431.1 -1900.1 444.3 -81.5 -343.2 1903 -444.4 1908 -430.8 1913 -418.5 1918 -404.5 1922.1 -391.8 1927.6 -377.5 1932.6 -364 1937.1 -350.9 1942 -336.8 1945.9 -323.4 1951.1 -309.2 1955.8 -296.3 1960.2 -281.8 1964.7 -267.8 1969.1 -254.5 1973.4 -239.7 1977.1 -225.6 1982.1 -211.6 1986.2 -197.2 1990.2 -183.9 1994.5 -168.7 1998.7 -154.3 2002.4 -140.1 2005.9 -125.3 2010.3 -111.1 2014.3 -96.3 2018.1 -81.6 2021.9 -67 2025.4 -52.1 2029.1 -37.4 2032.9 -22.4 2035.7 -7.4 0 -0.6zm62905.6 7481.1l333.7 113 -207.5 115.3 -1899.3 -443.8 -1904.1 -430.6 -1909.2 -416.7 -1914.1 -403.9 -1919.9 -390 -1923.8 -376.9 -1928.6 -363.7 -1933.4 -349.4 -1938.2 -336.6 -1943.6 -322.6 -1947.3 -309 -1951.8 -294.5 -1956.4 -281.6 -1960.8 -267.5 -1965.3 -252.7 -1969.7 -239.5 -1974.5 -225.5 -1978.2 -211.2 -1982.3 -197.1 -1986.5 -182.1 -1990.5 -168.7 -1994.6 -154.2 -1998.7 -139.7 -2003.3 -125.2 -2006.6 -110.7 -2010.3 -96.2 -2014 -81.6 -2018 -67 -2021.6 -52.1 -2025.2 -37.3 -2028.9 -22.4 -2033.1 -6.8 0 -352.6 2034.5 8 2031.6 22.4 2028 37.3 2024.3 52.1 2020.7 67 2016.9 81.6 2013.1 96.2 2009.3 110.7 2004.6 125.2 2001.5 139.7 1997.4 154.3 1993.4 168.6 1989.1 183.4 1985 197.1 1981 211.5 1975.9 225.2 1972.5 239.5 1967.9 254.4 1963.6 267.4 1959.1 281.3 1954.7 296 1950.2 309 1944.8 322.7 1940.8 336.5 1936.3 350.6 1931.3 363.8 1926.7 376.9 1921.1 391.3 1916.8 403.9 1912.1 418 1906.9 430.6 1902 443.8 -207.5 115.1zm333.7 113l-51.7 152.2 -155.8 -36.9 207.5 -115.3zm26650.7 -78986.8l108.9 222.5 -26759.6 78764.3 -333.7 -113 26759.7 -78764.3 224.7 -109.5zm0 0l165 57.5 -56.1 165 -108.9 -222.5zm-89890 -14852.2l0 -352.8 0 0 2948.8 16.4 2942 47.1 2934.4 78 2925.8 108.9 2918.6 139.7 2910.3 170.5 2902.2 200.8 2893.2 231 2885.1 261.9 2876.5 291 2866.7 321 2858.6 351.3 2849.2 379.9 2839.2 409.4 2830.6 439.1 2820.7 467.4 2810.3 496.6 2800.9 524.9 2790.9 554 2780 581.7 2770 610.4 2759 637.8 2748.7 666.4 2738.1 693.8 2726.3 720.8 2715.5 748.7 2703.8 775.9 2692.8 803.1 2680.5 828.8 2669.4 856.7 2656.7 882.6 2645.2 909.4 -115.7 332.1 -2641.2 -907.9 -2653.9 -881.6 -2665.2 -855.1 -2677.8 -828.8 -2688.7 -801.8 -2700.9 -774.5 -2711.6 -747.1 -2723.5 -720.9 -2733.7 -692.4 -2744.8 -665.1 -2756.1 -637.6 -2766 -609 -2777.1 -581.7 -2786.8 -552.7 -2796.9 -524.9 -2807.4 -495.5 -2816.8 -467.4 -2826.2 -437.8 -2836.4 -409.3 -2845.3 -380 -2854.4 -349.6 -2864 -321 -2872.2 -291 -2881.1 -260.6 -2890.3 -231 -2898 -200.8 -2906.4 -170.5 -2914.4 -139.7 -2923.1 -108.9 -2930.2 -78 -2938 -47.1 -2945.9 -15zm-89656.9 14958.6l-333.5 113 108.9 -222.5 2645.1 -909.2 2656.4 -882.7 2669.1 -856.3 2680.3 -828.8 2692.6 -802.8 2703.4 -775.8 2715.4 -748.4 2726 -720.7 2737.8 -693.7 2748.5 -666.3 2758.6 -637.6 2769.9 -610.2 2779.8 -581.7 2790.5 -553.9 2800.7 -524.5 2810.1 -496.9 2820.3 -467.1 2830.2 -439 2839.1 -409.4 2848.9 -379.8 2858.3 -351.3 2866.6 -320.6 2876.2 -291.3 2884.8 -261.7 2892.7 -230.9 2902 -200.9 2910 -170.3 2918.3 -139.7 2925.5 -108.9 2934.1 -78 2941.7 -47.1 2948.6 -16.4 0 352.8 -2945.7 15 -2937.8 47.1 -2929.8 78 -2922.7 108.9 -2914.2 139.7 -2906 170.4 -2897.8 200.8 -2889.9 231 -2880.9 260.2 -2872 291.2 -2863.7 320.8 -2854 349.7 -2845.1 380.1 -2836.2 409 -2825.9 437.8 -2816.5 467.2 -2807.1 495.5 -2796.7 524.6 -2786.4 552.6 -2777 581.6 -2765.6 609 -2755.9 637.5 -2744.5 664.7 -2733.6 692.4 -2723.1 720.5 -2711.5 747.3 -2700.6 774.3 -2688.5 801.3 -2677.4 828.9 -2665.1 854.9 -2653.7 881.4 -2640.9 907.8 108.9 -222.6zm-333.5 113l-56 -165 164.9 -57.5 -108.9 222.5z"/>
  <g style="clip-path:url(#id1)">
   <path id="_2" class="fil0 str1" d="M9873.3 7857l180101.4 94352.5m0 -94352.5l-180101.4 94352.5"/>
  </g>
 </g>
</svg>
