<?xml version="1.0" encoding="UTF-8"?>
<!DOCTYPE svg PUBLIC "-//W3C//DTD SVG 1.1//EN" "http://www.w3.org/Graphics/SVG/1.1/DTD/svg11.dtd">
<!-- Creator: CorelDRAW 2021 (64-Bit) -->
<svg xmlns="http://www.w3.org/2000/svg" xml:space="preserve" width="200mm" height="110mm" version="1.1" style="shape-rendering:geometricPrecision; text-rendering:geometricPrecision; image-rendering:optimizeQuality; fill-rule:evenodd; clip-rule:evenodd"
viewBox="0 0 199848.1 109916.5"
 xmlns:xlink="http://www.w3.org/1999/xlink"
 xmlns:xodm="http://www.corel.com/coreldraw/odm/2003">
 <defs>
  <style type="text/css">
   <![CDATA[
    .str0 {stroke:#2B2A29;stroke-width:199.8;stroke-miterlimit:22.9256}
    .fil0 {fill:none}
    .fil2 {fill:#FEFEFE}
    .fil1 {fill:#2B2A29}
   ]]>
  </style>
 </defs>
 <g id="Layer_x0020_1">
  <metadata id="CorelCorpID_0Corel-Layer"/>
  <rect class="fil0" width="199848.1" height="109916.5"/>
  <polygon class="fil1" points="36975.4,101682.1 38720.9,101274.5 40627.4,100844.1 42539,100425.9 44455.5,100021.7 46376.2,99630.2 48302.3,99253 50233.4,98889.2 52169.1,98538.6 54109.6,98202.1 56054,97878.9 58003.6,97569.9 59957.9,97273.9 61916.6,96992.3 63879.9,96724.7 65847.5,96470.4 67819.4,96230.9 69795,96005.4 71775.6,95794 73760.2,95596.9 75748.9,95413.2 77741.9,95244.6 79739.1,95090.4 81740,94950.4 83744.4,94825.2 85753.1,94714.2 87765.9,94618 89782.5,94536.5 91802.8,94469.5 93826.7,94417.4 95854.3,94380.1 97885.6,94357.7 99919.8,94349.7 101952.7,94357.7 103982.8,94380.1 106009.2,94417.3 108032,94469.4 110051.2,94536.4 112066.5,94617.9 114078.1,94714 116085.9,94824.6 118089,94949.7 120088.9,95089.3 122084.8,95243.5 124076.7,95412 126064.3,95595.2 128047.8,95792.2 130027.3,96003.5 132001.7,96228.6 133972.7,96467.9 135939.1,96722.1 137901.2,96989.3 139858.8,97270.4 141812,97566.1 143760.7,97874.9 145704.1,98197.4 147643.4,98533.6 149578.2,98883.9 151508.1,99247.5 153433.3,99624.1 155352.9,100015.1 157268.3,100418.7 159178.9,100836.4 161084.4,101266.6 162829,101673.7 189460.7,23286.3 186986.7,22435.8 184334.8,21554.9 181671.6,20700.5 178995.9,19872.3 176309.2,19071.1 173610.4,18297.2 170900.8,17550.7 168179.4,16830.3 165447.8,16138.4 162705,15473.8 159951,14836.7 157187.1,14228.2 154412.1,13646.9 151627.5,13094.6 148832.7,12570.1 146027.4,12075 143212.8,11608 140388.7,11170.5 137554.5,10761.5 134711.3,10381.8 131859.1,10032.5 128997.3,9711.7 126127.2,9420.9 123248.3,9160.5 120360.2,8929.7 117464.4,8729.1 114560.2,8558.7 111648,8419.1 108727.2,8310.3 105799.2,8232.3 102863.4,8185.3 99919.8,8170.3 96976.3,8185.3 94040.7,8232.3 91113.2,8310.3 88192.7,8419.1 85280.7,8558.7 82376.9,8729 79481.3,8929.6 76593.6,9160.4 73714.9,9420.4 70845.1,9711.4 67983.5,10032 65131.7,10381.4 62288.8,10761.2 59454.7,11169.9 56631,11607.4 53816.6,12074.2 51011.6,12569.3 48217.1,13093.5 45432.8,13645.7 42657.9,14226.9 39894.4,14835.4 37140.6,15472.4 34398.2,16136.6 31666.6,16828.5 28945.6,17548.5 26236.2,18295.2 23537.6,19068.9 20851.2,19869.6 18175.8,20697.9 15512.7,21552.1 12861,22432.9 10387.1,23283.2 "/>
  <path class="fil2 str0" d="M11907.8 27767l23504.3 69305.5c40933.4,-10075.9 81983.7,-9106.8 123108.2,-1193.8l24029.6 -69848.7c-58961.1,-18732.2 -114315,-17001.2 -170642.2,1737z"/>
 </g>
</svg>
