<?xml version="1.0" encoding="UTF-8"?>
<!DOCTYPE svg PUBLIC "-//W3C//DTD SVG 1.1//EN" "http://www.w3.org/Graphics/SVG/1.1/DTD/svg11.dtd">
<!-- Creator: CorelDRAW 2021 (64-Bit) -->
<svg xmlns="http://www.w3.org/2000/svg" xml:space="preserve" width="700mm" height="350mm" version="1.1" style="shape-rendering:geometricPrecision; text-rendering:geometricPrecision; image-rendering:optimizeQuality; fill-rule:evenodd; clip-rule:evenodd"
viewBox="0 0 699976 349988"
 xmlns:xlink="http://www.w3.org/1999/xlink"
 xmlns:xodm="http://www.corel.com/coreldraw/odm/2003">
 <defs>
  <style type="text/css">
   <![CDATA[
    .str0 {stroke:#2B2A29;stroke-width:200;stroke-miterlimit:22.9256}
    .fil0 {fill:none}
    .fil1 {fill:#FEFEFE}
   ]]>
  </style>
 </defs>
 <g id="Layer_x0020_1">
  <metadata id="CorelCorpID_0Corel-Layer"/>
  <rect class="fil0" width="699976" height="349988"/>
  <polygon class="fil1 str0" points="97542,47898.4 60543.2,47898.4 60543.2,302089.6 97542,302089.6 98041.9,302089.6 351233.3,302089.6 351733.2,302089.6 351733.2,47898.4 351233.3,47898.4 98041.9,47898.4 "/>
  <path class="fil1 str0" d="M642423.3 47898.4l-92846.8 0 -1999.9 -4999.8 -61997.9 0 -1999.9 4999.8 -93346.8 0 -1499.9 0 0 254191.3 1499.9 0 93346.8 0 1999.9 4999.8 61997.9 0 1999.9 -4999.8 92846.8 0c9812.7,0 19223.4,-3898.1 26162,-10836.7 6938.7,-6938.6 10836.7,-16349.3 10836.7,-26162l0 -167919c-5.5,0 -10,-4.5 -10,-10 0,-5.5 4.5,-10 10,-10l0 -12254.8c0,-20433.8 -16564.8,-36998.6 -36998.7,-36998.7z"/>
  <path class="fil1 str0" d="M549576.5 47898.4l92846.8 0c0,-9812.7 -3898.1,-19223.4 -10836.7,-26162.1 -6938.6,-6938.6 -16349.3,-10836.6 -26162,-10836.6l-178193.9 0c-9812.7,0 -19223.4,3898.1 -26162.1,10836.6 -6938.6,6938.7 -10836.6,16349.4 -10836.6,26162.1l93346.8 0 1999.9 -4999.8 61997.9 0 1999.9 4999.8z"/>
  <path class="fil1 str0" d="M547576.5 307089.5l-61997.9 0 -1999.9 -4999.8 -93346.8 0c0,9812.7 3898.1,19223.4 10836.6,26162 6938.7,6938.7 16349.4,10836.7 26162.1,10836.7l178193.9 0c9812.7,0 19223.4,-3898.1 26162,-10836.7 6938.7,-6938.6 10836.7,-16349.3 10836.7,-26162l-92846.8 0 -1999.9 4999.8z"/>
  <polygon class="fil1 str0" points="388732,302089.6 388732,47898.4 351733.2,47898.4 351733.2,302089.6 "/>
  <path class="fil1 str0" d="M388732 302089.6l-36998.7 0 -500 0 0 36998.7 2999.9 -1999.9 29499 0c1326.1,0 2597.7,-526.8 3535.4,-1464.4 937.7,-937.7 1464.4,-2209.3 1464.4,-3535.4l0 -29999z"/>
  <path class="fil1 str0" d="M351733.2 47898.4l36998.7 0 0 -29999c0,-2761.3 -2238.5,-4999.8 -4999.8,-4999.8l-29499 0 -2999.9 -1999.9 0 36998.7 500 0z"/>
  <path class="fil1 str0" d="M351233.3 47898.4l0 -36998.7 -93596.8 0 -1999.9 4999.8 -61997.9 0 -1999.9 -4999.8 -67552.2 0c0,5.5 -4.5,10 -10,10 -5.5,0 -10,-4.5 -10,-10l-26024.6 0 0 36998.7 253191.3 0z"/>
  <path class="fil1 str0" d="M351233.3 302089.6l-253191.3 0 0 36998.7 26024.6 0c0,-5.5 4.5,-10 10,-10 5.5,0 10,4.5 10,10l67552.2 0 1999.9 -4999.8 61997.9 0 1999.9 4999.8 93596.8 0 0 -36998.7z"/>
  <path class="fil1 str0" d="M98041.9 339088.4l0 -36998.7 -500 0 -36998.7 0 -15269 5777.4c-1944.2,735.7 -3230.4,2597.5 -3230.4,4676.2l0 19545.3c0,1326.1 526.8,2597.7 1464.4,3535.4 937.6,937.7 2209.3,1464.4 3535.4,1464.4l47998.4 0 2999.9 1999.9z"/>
  <path class="fil1 str0" d="M60543.2 47898.4l36998.7 0 500 0 0 -36998.7 -2999.9 1999.9 -47998.4 0c-2761.3,0 -4999.8,2238.4 -4999.8,4999.8l0 19545.2c0,2078.7 1286.2,3940.7 3230.4,4676.2l15269 5777.5z"/>
  <polygon class="fil1 str0" points="24844.9,49223.5 61165.6,49223.5 61165.6,301408.4 24844.9,301408.4 24844.9,267966.3 20379.3,265463.8 20379.3,224602.9 24844.9,222270.8 24844.9,127873 20379.3,125370.5 20379.3,84509.6 24844.9,82177.5 "/>
 </g>
</svg>
